<?xml version="1.0" encoding="utf-8"?>
<!-- Generator: Adobe Illustrator 25.0.1, SVG Export Plug-In . SVG Version: 6.00 Build 0)  -->
<svg version="1.1" id="图层_1" xmlns="http://www.w3.org/2000/svg" xmlns:xlink="http://www.w3.org/1999/xlink" x="0px" y="0px"
	 viewBox="0 0 1448 1448" style="enable-background:new 0 0 1448 1448;" xml:space="preserve">
<style type="text/css">
	.st0{fill:#871513;}
	.st1{fill:#F6FF00;}
</style>
<path id="芽边3" renderOrder="0" class="st0" d="M27.1,16.6c-0.7,0.5-1.4,0.5-2.1,0c-0.4-0.3-0.9-0.3-1.2,0c-0.6,0.5-1.2,0.5-1.7,0
	c-0.4-0.3-1-0.3-1.3,0.1c-0.6,0.6-1.1,0.6-1.7,0c-0.4-0.4-0.9-0.4-1.3-0.1c-0.6,0.5-1.3,0.5-1.9,0c-0.4-0.3-0.9-0.2-1.2,0
	c-0.6,0.5-1.3,0.5-2.1-0.1c-0.3-0.2-0.7-0.3-1-0.1c-1.2,0.5-1.5,0.2-1.1-0.9c0.2-0.4,0.5-0.6,0.9-0.6c212.4,0,424.8,0,637.2,0
	c6.7,0,13.3,0,20-0.1c204.6-1.5,409.2-3,613.8-4.4c0.1,0,0.6,0,1.5-0.1c1-0.1,1.6,0.2,1.7,0.9c0.1,0.4-0.2,0.8-0.6,0.9
	c-0.1,0-0.3,0-0.4,0c-0.5-0.2-1.1-0.1-1.7,0.2c-0.3,0.2-0.6,0.2-0.9,0L1281,12c-0.3-0.2-0.7-0.1-1,0.1c-0.6,0.5-1.2,0.4-1.8,0
	c-0.3-0.3-0.8-0.3-1.2,0l-0.4,0.3c-0.3,0.2-0.8,0.2-1.1,0c-0.7-0.5-1.4-0.5-2.1-0.1c-0.3,0.2-0.8,0.2-1.1,0c-0.6-0.4-1.3-0.4-2,0.1
	c-0.3,0.2-0.6,0.2-0.9,0.1l-0.8-0.3c-0.3-0.1-0.7-0.1-0.9,0.1c-0.7,0.5-1.4,0.5-2.1,0c-0.4-0.2-0.9-0.2-1.2,0.1
	c-0.6,0.5-1.3,0.5-2,0c-0.3-0.3-0.8-0.3-1.2,0c-0.6,0.4-1.3,0.4-2,0c-0.4-0.2-0.8-0.2-1.2,0.1c-0.6,0.5-1.2,0.5-1.8,0
	c-0.3-0.3-0.8-0.3-1.1-0.1c-0.7,0.4-1.4,0.4-2.1,0c-0.4-0.2-0.8-0.1-1.1,0.1c-0.6,0.5-1.2,0.5-1.7,0c-0.3-0.3-0.9-0.4-1.3-0.1
	l-0.3,0.2c-0.4,0.2-0.8,0.2-1.2,0c-0.7-0.5-1.3-0.5-1.9,0.1c-0.3,0.3-0.8,0.3-1.2,0.1c-0.7-0.4-1.4-0.5-2.1,0c-0.3,0.2-0.7,0.2-1,0
	c-0.7-0.4-1.4-0.4-2,0.1c-0.3,0.2-0.8,0.2-1.1,0c-0.7-0.5-1.4-0.5-2.1,0c-0.4,0.2-0.8,0.2-1.2-0.1l-0.2-0.2c-0.4-0.3-0.9-0.3-1.2,0
	c-0.7,0.5-1.3,0.5-2,0c-0.3-0.3-0.8-0.3-1.2,0l-0.4,0.3c-0.3,0.2-0.8,0.2-1.1,0c-0.7-0.5-1.3-0.5-1.9,0c-0.4,0.3-0.9,0.3-1.2,0
	c-0.6-0.5-1.3-0.5-1.9,0c-0.4,0.3-0.8,0.2-1.2,0c-0.6-0.5-1.2-0.4-1.8,0.1c-0.4,0.3-0.9,0.3-1.2,0c-0.7-0.5-1.4-0.5-2-0.1
	c-0.3,0.2-0.7,0.2-1,0.1l-0.6-0.3c-0.4-0.2-0.8-0.1-1.1,0.1c-0.7,0.6-1.4,0.6-2.2,0.1c-0.3-0.3-0.8-0.3-1.2,0
	c-0.6,0.4-1.2,0.4-1.8,0c-0.4-0.2-0.8-0.2-1.1,0.1c-0.7,0.5-1.4,0.5-2.1,0c-0.4-0.3-0.8-0.3-1.2,0c-0.6,0.5-1.2,0.5-1.8,0
	c-0.4-0.3-0.9-0.3-1.3,0.1c-0.6,0.6-1.2,0.6-1.8,0c-0.4-0.3-1-0.4-1.3,0c-0.6,0.5-1.1,0.5-1.8,0c-0.4-0.3-0.9-0.3-1.3,0.1
	c-0.6,0.5-1.1,0.5-1.8-0.1c-0.3-0.3-0.8-0.3-1.2-0.1c-0.7,0.5-1.4,0.5-2.1,0.1c-0.4-0.2-0.8-0.2-1.1,0.1c-0.6,0.5-1.3,0.5-1.9,0
	c-0.3-0.3-0.8-0.3-1.1-0.1c-0.7,0.4-1.4,0.4-2.2,0c-0.3-0.2-0.7-0.1-1,0.1c-0.6,0.5-1.3,0.5-2,0c-0.3-0.2-0.8-0.2-1.1,0
	c-0.7,0.4-1.3,0.4-2,0c-0.4-0.2-0.8-0.2-1.2,0.1c-0.6,0.5-1.2,0.5-1.9,0c-0.3-0.2-0.8-0.2-1.2,0c-0.6,0.4-1.3,0.4-1.9,0
	c-0.4-0.2-0.8-0.2-1.2,0c-0.6,0.5-1.3,0.5-1.9,0c-0.4-0.3-0.9-0.3-1.2,0c-0.6,0.5-1.2,0.5-1.9,0c-0.4-0.3-0.8-0.3-1.2,0
	c-0.7,0.5-1.4,0.5-2.2,0c-0.4-0.2-0.8-0.2-1.2,0c-0.6,0.4-1.2,0.4-1.8,0c-0.4-0.3-0.9-0.2-1.3,0.1c-0.6,0.6-1.3,0.5-2,0
	c-0.4-0.3-0.9-0.3-1.2,0c-0.6,0.5-1.2,0.5-1.8,0c-0.4-0.3-0.9-0.3-1.3,0.1c-0.6,0.5-1.2,0.5-1.8,0c-0.4-0.3-0.9-0.3-1.2,0
	c-0.6,0.4-1.2,0.4-1.8,0c-0.3-0.3-0.8-0.3-1.2,0l-0.5,0.3c-0.3,0.2-0.8,0.2-1.1,0c-0.7-0.5-1.4-0.5-2.1,0c-0.3,0.2-0.7,0.2-1,0
	c-0.7-0.4-1.4-0.4-2.1,0.1c-0.4,0.3-0.9,0.3-1.2,0c-0.6-0.5-1.3-0.5-2,0c-0.3,0.2-0.8,0.2-1.2,0c-0.6-0.5-1.3-0.5-1.9,0
	c-0.4,0.3-0.9,0.3-1.2,0c-0.6-0.5-1.3-0.5-2,0c-0.3,0.2-0.8,0.2-1.1,0c-0.6-0.4-1.2-0.4-1.8,0.1c-0.3,0.3-0.8,0.3-1.2,0
	c-0.6-0.5-1.3-0.5-2,0c-0.3,0.2-0.8,0.2-1.1,0c-0.7-0.4-1.3-0.4-2,0c-0.4,0.3-0.8,0.2-1.2,0c-0.6-0.5-1.3-0.5-1.9,0
	c-0.3,0.2-0.8,0.2-1.1,0c-0.6-0.4-1.2-0.4-1.8,0c-0.2,0.1-0.3,0.1-0.5,0.2c-4.5-0.1-9-0.1-13.4,0c-36.6,0.4-73.2,0.6-109.8,0.7
	c-1.1,0-2,0.6-3.2-0.1c-0.3-0.2-0.7-0.2-1,0l-0.6,0.3c-0.3,0.2-0.7,0.1-1,0c-0.7-0.4-1.3-0.4-1.9,0c-0.4,0.3-0.9,0.3-1.2,0
	c-0.6-0.5-1.3-0.5-2,0c-0.3,0.2-0.8,0.2-1.1,0c-0.7-0.5-1.4-0.5-2,0.1c-0.4,0.3-0.9,0.3-1.2,0c-0.6-0.5-1.2-0.5-1.8-0.1
	c-0.4,0.3-0.8,0.3-1.2,0c-0.6-0.5-1.3-0.4-1.9,0.1c-0.3,0.3-0.8,0.3-1.1,0.1l-0.7-0.4c-0.3-0.2-0.8-0.2-1.1,0.1
	c-0.6,0.4-1.2,0.5-1.9,0c-0.4-0.2-0.8-0.2-1.2,0.1c-0.6,0.5-1.3,0.5-2,0c-0.3-0.3-0.8-0.3-1.2-0.1l-0.4,0.2c-0.3,0.2-0.7,0.2-1.1,0
	c-0.7-0.4-1.4-0.4-2.1,0.1c-0.3,0.2-0.8,0.2-1.1,0l-0.4-0.3c-0.4-0.2-0.8-0.2-1.2,0c-0.6,0.5-1.2,0.5-1.8,0c-0.3-0.3-0.9-0.3-1.2,0
	l-0.5,0.3c-0.4,0.3-1,0.2-1.3-0.1c-0.5-0.6-1-0.6-1.6,0c-0.4,0.4-0.9,0.4-1.3,0.1c-0.6-0.5-1.2-0.5-1.8,0c-0.4,0.3-0.9,0.3-1.2,0
	c-0.7-0.5-1.3-0.5-2,0c-0.3,0.3-0.8,0.3-1.2,0c-0.7-0.5-1.3-0.4-2,0c-0.3,0.2-0.7,0.2-1,0.1l-0.8-0.4c-0.3-0.2-0.7-0.1-1,0.1
	c-0.7,0.5-1.4,0.5-2.1,0.1c-0.4-0.2-0.8-0.2-1.1,0.1c-0.7,0.5-1.3,0.5-1.9,0c-0.3-0.3-0.8-0.3-1.2,0c-0.7,0.4-1.3,0.4-2,0
	c-0.4-0.2-0.8-0.2-1.2,0.1c-0.6,0.5-1.2,0.5-1.8,0.1c-0.3-0.3-0.8-0.3-1.1,0c-1.5,0.9-2-0.8-3.4,0.1c-0.2,0.1-0.5,0.2-0.7,0.1
	c-2.7-0.5-5.4-0.1-8.1-0.2c-1.5-0.1-3.1,0-4.6,0.3c-0.2,0-0.5,0-0.7-0.1l-0.2-0.1c-0.1-0.1-0.2-0.1-0.3-0.1l-11.6,0.1c0,0,0,0-0.1,0
	l-8.3,0.6c-0.1,0-0.3,0-0.4,0l-1.5-0.5c-0.3-0.1-0.6,0-0.8,0.1c-0.7,0.5-1.4,0.5-2.1,0c-0.3-0.2-0.8-0.2-1.1,0c-0.6,0.4-1.3,0.4-2,0
	c-0.3-0.2-0.8-0.2-1.1,0.1c-0.8,0.5-1.6,0-2.3,0c-38.9,0.4-77.8,0.7-116.7,0.9c-2.4,0-4.2,0-5.4-0.1c-0.2,0-0.4,0-0.5,0.1
	c-0.8,0.4-1.5,0.4-2.2-0.1c-0.3-0.2-0.8-0.2-1.1,0c-0.6,0.4-1.2,0.4-1.8,0.1c-0.3-0.2-0.7-0.2-1,0c-0.7,0.4-1.3,0.4-2.1,0.1
	c-0.1-0.1-0.3-0.1-0.4-0.1l-10.3,0.1c-0.1,0-0.2,0-0.3,0c-0.6,0.2-1.2,0.2-1.8-0.1c-0.3-0.1-0.6-0.1-0.9,0c-0.7,0.4-1.4,0.4-2.1,0
	c-0.4-0.2-0.8-0.2-1.1,0.1c-0.6,0.5-1.2,0.5-1.9,0c-0.3-0.3-0.8-0.3-1.1,0c-0.6,0.4-1.3,0.4-1.9,0c-0.3-0.2-0.7-0.2-1,0l-0.7,0.4
	c-0.3,0.2-0.7,0.1-1-0.1c-0.7-0.5-1.4-0.5-2.1,0c-0.3,0.2-0.7,0.2-1,0c-0.7-0.4-1.4-0.4-2.1,0.1c-0.4,0.3-0.8,0.3-1.2,0
	c-0.6-0.5-1.3-0.5-2,0c-0.3,0.2-0.7,0.2-1.1,0c-0.7-0.4-1.4-0.4-1.9,0c-0.4,0.3-0.9,0.3-1.3,0c-0.6-0.5-1.1-0.5-1.7,0
	c-0.3,0.3-0.8,0.3-1.2,0c-0.7-0.5-1.4-0.5-2,0.1c-0.3,0.3-0.8,0.3-1.2,0.1l-0.4-0.3c-0.3-0.2-0.7-0.2-1,0c-0.7,0.4-1.4,0.4-2.1,0.1
	c-0.3-0.2-0.7-0.1-1,0.1c-0.7,0.5-1.4,0.5-2.2,0c-0.3-0.2-0.7-0.3-1-0.1l-0.5,0.3c-0.3,0.1-0.6,0.1-0.9,0c-0.8-0.4-1.6-0.4-2.3,0
	c-0.3,0.2-0.7,0.2-1,0c-0.7-0.4-1.4-0.4-2.1,0c-0.2,0.1-0.5,0.1-0.8,0.1l-1-0.3c-0.3-0.1-0.7,0-1,0.2c-0.6,0.5-1.2,0.5-1.7,0.1
	c-0.4-0.3-0.9-0.4-1.3-0.1c-0.6,0.5-1.3,0.5-2,0c-0.4-0.2-0.8-0.2-1.2,0.1c-0.6,0.4-1.2,0.4-1.9,0c-0.3-0.2-0.6-0.2-1-0.1l-0.8,0.4
	c-0.3,0.1-0.6,0.1-0.9-0.1c-0.7-0.4-1.4-0.4-2,0c-0.3,0.2-0.7,0.2-1,0l-0.5-0.3c-0.3-0.2-0.7-0.2-1,0c-0.7,0.4-1.4,0.4-2.1,0.1
	c-0.3-0.2-0.7-0.2-1,0c-0.8,0.4-1.5,0.4-2.3,0c-0.3-0.2-0.7-0.2-1,0c-0.7,0.4-1.4,0.4-2.2,0c-0.3-0.2-0.8-0.1-1.1,0.1
	c-0.6,0.5-1.3,0.5-2,0.1c-0.2-0.1-0.4-0.2-0.7-0.2c-4.3,0.5-7.3-0.1-10.8,0.4c-0.2,0-0.5,0-0.7-0.1c-0.6-0.4-1.2-0.4-1.8,0
	c-0.3,0.2-0.7,0.2-1,0c-0.6-0.3-1.2-0.3-1.8,0c-0.2,0.1-0.4,0.2-0.7,0.1c-3-0.4-5.9-0.1-9-0.2c-1.3-0.1-2.6,0-3.9,0.2
	c-0.2,0-0.5,0-0.6-0.1c-0.7-0.4-1.3-0.4-1.9,0c-0.3,0.2-0.7,0.2-1.1,0c-0.6-0.4-1.3-0.4-2,0c-0.3,0.2-0.7,0.2-1,0
	c-0.7-0.4-1.4-0.4-2.2,0c-0.3,0.2-0.7,0.1-0.9,0c-0.7-0.4-1.3-0.4-2.1,0c-0.2,0.1-0.4,0.1-0.7,0.1c-2.6-0.5-5.7-0.1-7.6-0.1
	c-10-0.1-20-0.1-30,0c-0.8,0-1.7-0.6-2.6,0c-0.3,0.2-0.7,0.2-1,0c-0.6-0.4-1.3-0.4-2,0c-0.3,0.2-0.7,0.2-1,0
	c-0.3-0.1-0.5-0.2-0.7-0.2c-15.8,0.1-31.7,0.1-47.5,0.1c-0.2,0-0.5,0.1-0.9,0.2c-0.4,0.1-0.8,0-1.3-0.3c-0.2-0.2-0.5-0.2-0.8-0.2
	l-1.3,0.3c-0.2,0.1-0.5,0-0.7-0.1c-0.6-0.3-1.3-0.3-2,0.1c-0.2,0.1-0.4,0.1-0.6,0.1c-2.5-0.5-5.6-0.1-7.5-0.1
	c-26.7-0.1-53.4-0.1-80.2,0c-0.8,0-1.6-0.5-2.5,0.1c-0.3,0.2-0.7,0.2-1,0c-0.6-0.4-1.3-0.4-2,0c-0.3,0.2-0.7,0.2-1,0
	c-0.7-0.4-1.4-0.4-2.2,0c-0.3,0.2-0.6,0.2-0.9,0c-0.7-0.4-1.5-0.4-2.2,0.1c-0.2,0.2-0.6,0.2-0.8,0l-0.3-0.2
	c-0.2-0.1-0.3-0.1-0.5-0.1c-3.8,0.1-7.7,0.1-11.5,0.1c-0.9,0-1.6-0.5-2.7,0c-0.3,0.1-0.7,0.1-1,0c-0.6-0.4-1.2-0.4-1.9,0
	c-0.2,0.1-0.4,0.2-0.6,0.1c-0.6-0.1-1.8-0.1-3.5-0.2c-5-0.1-10-0.1-15,0.1c-0.9,0-1.9-0.6-3,0c-0.3,0.2-0.7,0.1-1,0
	c-0.6-0.3-1.2-0.3-1.9,0c-0.2,0.1-0.4,0.1-0.7,0.1c-2.4-0.5-5.4-0.1-7.2-0.2c-6-0.1-12.1,0-18.1,0.1c-0.2,0-0.3,0-0.5-0.1
	c-0.6-0.3-1.2-0.3-1.8,0c-0.3,0.2-0.7,0.2-1,0c-0.6-0.4-1.3-0.4-2,0c-0.3,0.2-0.7,0.2-1,0c-0.8-0.4-1.5-0.4-2.3,0
	c-0.3,0.2-0.7,0.2-1,0c-0.7-0.4-1.4-0.4-2,0.1c-0.3,0.2-0.8,0.2-1.1,0c-0.7-0.5-1.3-0.5-2,0c-0.3,0.2-0.7,0.2-1,0
	c-0.7-0.4-1.4-0.4-2,0c-0.3,0.2-0.8,0.2-1.1,0c-0.7-0.5-1.3-0.5-2-0.1c-0.3,0.2-0.7,0.2-1.1,0c-0.6-0.4-1.1-0.4-1.6,0
	c-0.2,0.1-0.5,0.2-0.7,0.2c-1.3-0.2-2.7-0.3-4-0.2c-3.7,0.2-7-0.3-10.7,0.6c-0.2,0-0.4,0-0.6,0l-1.7-0.6c-0.3-0.1-0.6-0.1-0.9,0.1
	c-0.8,0.5-1.5,0.5-2.1,0c-0.3-0.3-0.8-0.3-1.2,0c-0.6,0.4-1.2,0.4-1.9,0c-0.3-0.2-0.8-0.2-1.1,0l-0.4,0.3c-0.4,0.3-1,0.2-1.3-0.1
	c-0.5-0.6-1.1-0.6-1.8,0c-0.3,0.3-0.7,0.3-1.1,0.1l-0.7-0.3c-0.3-0.2-0.7-0.1-1,0.1c-0.7,0.5-1.3,0.5-2,0c-0.4-0.3-0.9-0.3-1.2,0
	c-0.6,0.5-1.2,0.4-1.9,0c-0.4-0.3-0.8-0.2-1.2,0c-0.7,0.5-1.4,0.5-2.1,0c-0.3-0.3-0.8-0.3-1.2,0c-0.6,0.4-1.2,0.5-1.8,0
	c-0.4-0.3-0.8-0.3-1.2,0c-0.6,0.5-1.3,0.5-2,0c-0.4-0.3-0.8-0.3-1.2,0c-0.6,0.5-1.2,0.5-1.8,0c-0.4-0.3-0.9-0.2-1.2,0.1
	c-0.6,0.5-1.1,0.5-1.7,0c-0.3-0.3-0.7-0.3-1.1-0.1c-1.7,0.8-2.4-0.7-3.7,0.2c-0.2,0.1-0.5,0.2-0.7,0.1c-2.1-0.4-4.1-0.4-6.2,0
	c-0.2,0-0.5,0-0.7-0.1c-0.7-0.4-1.3-0.4-1.9,0c-0.3,0.2-0.6,0.2-1,0.1l-0.8-0.3c-0.3-0.1-0.7-0.1-0.9,0.1c-0.7,0.5-1.4,0.5-2,0
	c-0.4-0.3-0.9-0.2-1.2,0c-0.6,0.4-1.1,0.4-1.8-0.1c-0.3-0.3-0.8-0.3-1.2,0l-0.4,0.3c-0.4,0.3-0.9,0.2-1.3-0.1
	c-0.5-0.5-1.1-0.5-1.8,0c-0.3,0.3-0.8,0.3-1.2,0.1c-0.7-0.5-1.4-0.5-2.1,0c-0.3,0.2-0.8,0.2-1.1,0c-0.7-0.5-1.3-0.5-2,0
	c-0.3,0.2-0.7,0.2-1,0c-0.7-0.4-1.4-0.4-2,0c-0.3,0.2-0.8,0.2-1.2,0c-0.7-0.5-1.3-0.5-2,0c-0.3,0.2-0.7,0.2-1,0
	c-0.7-0.4-1.4-0.4-2,0c-0.3,0.2-0.8,0.2-1.1,0c-0.7-0.5-1.3-0.5-2-0.1c-0.3,0.2-0.7,0.2-1.1,0c-0.6-0.4-1.1-0.4-1.6,0
	c-0.2,0.1-0.5,0.2-0.7,0.2c-1.4-0.2-2.7-0.3-4.1-0.2c-3,0.2-5.8-0.3-8.7,0.2c-0.2,0-0.5,0-0.7-0.1c-0.6-0.4-1.3-0.4-1.9,0
	c-0.3,0.2-0.7,0.2-1.1,0c-0.7-0.4-1.4-0.4-2,0c-0.4,0.2-0.8,0.2-1.2,0c-0.6-0.5-1.2-0.5-1.9,0c-0.3,0.3-0.8,0.3-1.2,0
	c-0.6-0.5-1.3-0.4-1.9,0c-0.4,0.3-0.8,0.3-1.2,0c-0.7-0.5-1.4-0.5-2.2,0c-0.3,0.2-0.7,0.2-1,0c-0.7-0.4-1.4-0.4-2,0
	c-0.3,0.2-0.8,0.2-1.1,0c-0.7-0.5-1.3-0.5-2,0c-0.3,0.2-0.7,0.2-1,0c-0.7-0.4-1.4-0.4-2,0c-0.3,0.2-0.8,0.2-1.2,0
	c-0.7-0.5-1.3-0.5-2,0c-0.3,0.2-0.7,0.2-1,0c-0.7-0.4-1.4-0.4-2,0c-0.3,0.2-0.8,0.2-1.1,0c-0.7-0.5-1.3-0.5-2-0.1
	c-0.3,0.2-0.7,0.2-1.1,0c-0.5-0.3-1-0.4-1.5-0.1c-0.1,0.1-0.3,0.1-0.4,0.1l-20,0c-0.1,0-0.3,0-0.4-0.1c-0.6-0.3-1.1-0.2-1.5,0.1
	c-0.3,0.3-0.8,0.3-1.2,0c-0.7-0.4-1.4-0.4-2,0.1c-0.4,0.3-0.8,0.3-1.2,0c-0.7-0.5-1.4-0.5-2.1-0.1c-0.3,0.2-0.7,0.2-1,0
	c-0.7-0.4-1.4-0.4-2,0c-0.3,0.2-0.8,0.2-1.1,0c-0.7-0.5-1.3-0.5-2,0c-0.3,0.2-0.7,0.2-1,0c-0.7-0.4-1.4-0.4-2,0
	c-0.3,0.2-0.8,0.2-1.2,0c-0.7-0.5-1.3-0.5-2,0c-0.3,0.2-0.7,0.2-1,0c-0.7-0.4-1.4-0.4-2,0c-0.3,0.2-0.8,0.2-1.1,0
	c-0.7-0.5-1.3-0.5-2-0.1c-0.3,0.2-0.7,0.2-1.1,0c-0.6-0.4-1.1-0.4-1.7,0c-0.2,0.2-0.5,0.2-0.8,0.2c-2.1-0.4-4.2-0.4-6.4,0
	c-0.2,0.1-0.5,0-0.7-0.1l-0.3-0.2c-0.1,0-0.1-0.1-0.2-0.1c-2.7,0.1-5.4,0.2-8.1,0.2c-0.9,0-1.7-0.6-2.8,0.1c-0.3,0.2-0.7,0.2-1.1,0
	c-0.6-0.4-1.2-0.4-1.8,0c-0.3,0.3-0.8,0.3-1.2,0c-0.6-0.5-1.3-0.4-1.9,0c-0.4,0.3-0.8,0.3-1.2,0c-0.7-0.5-1.4-0.5-2.2,0
	c-0.3,0.2-0.7,0.2-1,0c-0.7-0.4-1.4-0.4-2,0c-0.3,0.2-0.8,0.2-1.1,0c-0.7-0.5-1.3-0.5-2,0c-0.3,0.2-0.7,0.2-1,0
	c-0.7-0.4-1.4-0.4-2,0c-0.3,0.2-0.8,0.2-1.2,0c-0.7-0.5-1.3-0.5-2,0c-0.3,0.2-0.7,0.2-1,0c-0.7-0.4-1.4-0.4-2.1,0
	c-0.3,0.2-0.8,0.2-1.1,0c-0.7-0.5-1.3-0.5-2.1,0c-0.3,0.2-0.7,0.2-1.1,0c-0.6-0.4-1.2-0.4-1.8,0C70.3,17,70,17,69.7,16.9
	c-1.5-0.5-3.3-0.1-4.5-0.2c-4.8-0.1-9.7-0.1-14.5,0.1c-0.2,0-0.3,0-0.5-0.1c-0.6-0.3-1.3-0.3-1.9,0.1c-0.3,0.2-0.7,0.2-1,0
	c-0.7-0.4-1.4-0.4-2,0c-0.3,0.2-0.8,0.2-1.1,0c-0.6-0.5-1.3-0.5-2,0c-0.3,0.2-0.7,0.2-1,0c-0.7-0.4-1.4-0.4-2,0
	c-0.3,0.2-0.8,0.2-1.1,0c-0.7-0.5-1.3-0.5-2,0c-0.3,0.2-0.7,0.2-1,0c-1.6-0.9-2.1,0.9-3.8-0.2c-0.3-0.2-0.8-0.2-1.1,0
	c-0.6,0.4-1.2,0.4-1.8,0C27.9,16.4,27.4,16.4,27.1,16.6z"/>
<path id="文胸_后比R" renderOrder="0" class="st1" d="M0,500V184.7c15.6,1,30,2.6,46.5,0.5c25-3.2,50-10.5,72.4-22.1
	c41.4-21.3,76.8-52.4,109-85.6c13.1-13.5,26.2-27.1,39.1-40.8c0.4-0.4,1-0.4,1.4-0.1c0.1,0.1,0.2,0.3,0.3,0.4
	c7.8,24.4,15.8,48.7,24,73c17.4,51.8,37.2,102.2,62.4,150.8c12.6,24.2,25.5,48.2,38.8,71.9c0.1,0.2,0.1,0.4,0.1,0.6L377,493.9
	c-0.1,0.5-0.5,0.9-1,0.9c-80.2-1.8-160.2-1.7-240,0.2C96.9,496,51.6,497.6,0,500z"/>
<path id="芽边L" renderOrder="0" class="st0" d="M875.1,48.7c0.3,0,0.4,0,0.7-0.2c0.1-0.1,0.3-0.1,0.4-0.1l30.8,0c0.2,0,0.4-0.1,0.6-0.2
	c0.4-0.3,0.8-0.3,1.3,0.1c0.2,0.1,0.4,0.2,0.6,0.2l12.9,0.1c0.1,0,0.3,0,0.4-0.1c1-0.4,1.3-0.1,1.2,0.7c-0.1,0.5-0.5,0.8-1,0.8
	c-97.9,0-195.8,0-293.8,0c-73.3,0-146.7,0.3-220,0c-0.3,0-0.6-0.2-0.8-0.5c-0.9-1.4,0-1.6,2.9-0.6c0.3,0.1,0.6,0.1,0.9-0.1
	c1.3-0.8,2.5-0.9,3.6-0.4c0.3,0.2,0.7,0.1,1-0.1c0.6-0.4,1.2-0.4,1.8,0c0.4,0.3,0.9,0.3,1.2,0c0.7-0.5,1.3-0.5,2,0
	c0.4,0.3,0.9,0.3,1.3,0c0.5-0.5,1.1-0.4,1.7,0c0.4,0.3,0.9,0.3,1.3,0c0.6-0.5,1.3-0.5,2,0c0.4,0.3,0.9,0.3,1.3,0
	c0.5-0.5,1.1-0.5,1.6,0c0.3,0.3,0.8,0.3,1.2,0c0.7-0.5,1.4-0.5,2.1,0c0.3,0.2,0.8,0.2,1.2,0c0.6-0.4,1.2-0.4,1.8,0
	c0.4,0.3,0.8,0.3,1.2,0c0.7-0.5,1.4-0.5,2.2,0c0.4,0.2,0.8,0.2,1.1,0c0.6-0.4,1.3-0.4,1.9,0c0.4,0.2,0.8,0.2,1.2,0
	c0.7-0.5,1.4-0.5,2,0c0.4,0.3,0.9,0.3,1.3,0c0.6-0.4,1.2-0.4,1.8,0c0.4,0.3,0.8,0.3,1.2,0c0.6-0.5,1.3-0.5,1.9,0
	c0.3,0.3,0.8,0.3,1.2,0c0.6-0.4,1.3-0.4,2,0c0.3,0.2,0.8,0.2,1.1,0c0.7-0.5,1.3-0.4,2,0c0.3,0.2,0.7,0.2,1,0.1
	c0.7-0.3,1.5-0.3,2.2,0c0.3,0.1,0.6,0.1,0.9,0l0.9-0.4c0.3-0.2,0.7-0.1,1,0c0.7,0.4,1.4,0.5,2.2,0.1c0.3-0.2,0.7-0.1,1,0.1
	c0.6,0.5,1.3,0.4,1.8-0.1c0.3-0.3,0.7-0.3,1.1-0.2l0.8,0.4c0.3,0.2,0.7,0.1,1-0.1c0.6-0.4,1.2-0.4,1.9,0c0.3,0.2,0.8,0.2,1.1,0
	c0.7-0.5,1.5-0.4,2.3,0.1c0.2,0.1,0.4,0.1,0.6,0.1l0.3-0.1c0.1-0.1,0.3-0.1,0.4-0.1c46.4,0,92.9,0,139.3,0c1,0,2-0.6,3.1,0
	c0.3,0.2,0.8,0.2,1.1-0.1c0.6-0.4,1.2-0.4,1.7,0c0.4,0.3,0.9,0.3,1.3,0c0.6-0.5,1.3-0.5,2,0c0.4,0.3,0.8,0.3,1.2,0
	c0.6-0.4,1.2-0.4,1.7,0c0.4,0.3,0.8,0.3,1.2,0c0.7-0.5,1.4-0.5,2.1,0c0.4,0.3,0.9,0.3,1.2,0c0.6-0.5,1.2-0.4,1.7,0
	c0.4,0.3,0.8,0.3,1.2,0c0.8-0.5,1.5-0.6,2.3-0.1c0.3,0.2,0.6,0.2,0.9,0.1c0.8-0.3,1.5-0.3,2.2,0c0.3,0.2,0.8,0.1,1-0.1
	c0.7-0.5,1.3-0.5,1.9,0c0.3,0.3,0.8,0.3,1.2,0c0.6-0.4,1.2-0.4,1.8,0c0.3,0.2,0.8,0.2,1.1,0c0.6-0.5,1.3-0.4,1.9,0
	c0.2,0.1,0.5,0.2,0.7,0.2c1.1-0.1,2.8-0.2,5.3-0.2c5.6,0,11.1,0,16.7,0.1c0.2,0,0.3,0,0.5-0.1c0.7-0.4,1.3-0.3,1.9,0.1
	c0.3,0.2,0.7,0.2,1,0.1c0.6-0.3,1.3-0.3,1.9,0c0.3,0.1,0.6,0.1,0.9,0c1.2-0.6,1.9,0,2.9,0c11.6-0.1,23.2-0.1,34.9,0
	c0.2,0,0.3,0,0.5-0.1c0.6-0.3,1.2-0.3,1.8,0.1c0.3,0.2,0.8,0.2,1.1,0c0.6-0.4,1.1-0.4,1.7,0c0.4,0.3,0.9,0.3,1.3,0
	c0.6-0.5,1.3-0.5,2,0c0.4,0.3,0.8,0.2,1.2,0c0.6-0.4,1.1-0.4,1.7,0c0.3,0.3,0.8,0.3,1.2,0c0.5-0.4,1.1-0.4,1.7-0.2
	c0.5,0.2,0.8,0.3,1,0.3l10-0.1c0.2,0,0.3,0,0.5-0.1c0.6-0.3,1.1-0.3,1.6,0.1c0.3,0.2,0.8,0.3,1.1,0.1c0.7-0.4,1.3-0.4,2,0
	c0.4,0.2,0.8,0.2,1.1-0.1c0.6-0.5,1.2-0.5,1.8,0c0.2,0.2,0.5,0.2,0.8,0.2c0.9-0.2,2.7-0.2,5.3-0.2c20.4,0,40.8,0,61.1,0
	c2.4,0,4.1,0.1,5,0.2c0.2,0,0.5,0,0.7-0.1c1.1-0.7,16.2,0,18.7,0c0.1,0,0.4-0.1,1-0.3c0.5-0.2,1,0,1.5,0.3c0.2,0.2,0.5,0.2,0.7,0.1
	l0.2-0.1c0.1-0.1,0.2-0.1,0.4-0.1c6.8,0,13.6,0,20.5,0.1C872.1,48.5,874.2,48.5,875.1,48.7z"/>
<path id="文胸_侧比L" renderOrder="0"  class="st1" d="M618.2,289.6c-0.2,38.5-0.4,77-0.7,115.5c0,0.6-0.5,1-1,1c0,0,0,0,0,0
	c-34.4-0.7-58.8-1-73.3-1c-19.2,0.1-54,0.6-104.4,1.5c-0.5,0-0.9-0.4-1-0.9L398.1,98.5c-0.1-0.4,0.2-0.9,0.6-1
	c19.5-8.8,37.9-19.6,55.2-32.2c0.4-0.3,1.1-0.2,1.4,0.2c0.1,0.1,0.1,0.2,0.2,0.3c6.8,26.4,13.7,52.8,20.7,79.2
	c6.9,26,15.9,51.7,28.5,75.5c14,26.6,40.4,50.7,71,55.3c13.9,2.1,27.8,3.2,41.7,3.3c0.5,0,1,0.5,1,1
	C618.3,283.4,618.2,286.5,618.2,289.6z"/>
<path id="芽边R" renderOrder="0"  class="st0" d="M1100.8,77.5c0.4,0.4,0.9,0.4,1.3,0.1c0.6-0.5,1.2-0.5,1.9,0c0.4,0.3,1,0.3,1.3-0.1
	c0.6-0.6,1.2-0.6,1.8,0c0.3,0.3,0.8,0.3,1.2,0.1c0.6-0.4,1.3-0.4,2,0c0.3,0.1,0.6,0.2,0.9,0.1l0.9-0.4c0.3-0.1,0.7-0.1,0.9,0.1
	c0.7,0.4,1.3,0.5,2,0c0.3-0.2,0.7-0.2,1,0c0.7,0.5,1.4,0.4,2.1-0.1c0.3-0.3,0.8-0.3,1.1,0l0.5,0.3c0.4,0.2,0.8,0.2,1.2,0
	c0.6-0.5,1.2-0.5,1.8,0c0.4,0.3,0.9,0.3,1.2,0l0.3-0.2c0.4-0.3,1-0.3,1.3,0.1c0.6,0.6,1.2,0.6,1.7,0.1c0.4-0.4,1-0.4,1.4-0.1
	c0.6,0.5,1.1,0.5,1.7,0c0.4-0.3,0.9-0.4,1.3,0c0.7,0.5,1.4,0.5,2.1,0c0.4-0.3,0.9-0.3,1.3,0.1c0.5,0.5,1.1,0.5,1.7-0.1
	c0.3-0.3,0.8-0.3,1.2-0.1c0.7,0.5,1.4,0.5,2.1,0c0.3-0.2,0.8-0.2,1.1,0c0.6,0.4,1.3,0.4,2,0c0.3-0.2,0.8-0.2,1.1,0
	c1.1,0.8,3-0.8,2.6,0.8c-0.1,0.4-0.5,0.7-0.9,0.8c-2.2,0.2-4.4,0.2-6.6,0.2C970.3,79,801.2,78.9,632.1,79c-0.4,0-0.8-0.3-0.8-0.7
	l0-0.4c0-0.5,0.2-0.6,0.6-0.4c0.6,0.4,1.3,0.3,1.9-0.2c0.4-0.3,0.9-0.3,1.2,0l0.2,0.2c0.3,0.3,0.8,0.3,1.2,0
	c0.7-0.5,1.4-0.5,2.2,0.1c0.4,0.2,0.8,0.2,1.2,0c0.6-0.4,1.2-0.4,1.8,0c0.3,0.2,0.7,0.2,1,0.1l0.8-0.4c0.3-0.2,0.7-0.1,1.1,0.1
	c0.6,0.5,1.2,0.5,1.9,0c0.3-0.2,0.7-0.2,1-0.1l0.6,0.3c0.3,0.2,0.7,0.1,1-0.1c0.7-0.5,1.4-0.5,2,0c0.4,0.3,0.9,0.3,1.2,0
	c0.6-0.5,1.2-0.4,1.9,0c0.3,0.2,0.8,0.2,1.1,0l0.4-0.3c0.4-0.3,0.9-0.2,1.2,0.1c0.5,0.4,1,0.5,1.5,0.2c0.1-0.1,0.3-0.1,0.5-0.1
	l10.5,0c0.1,0,0.3,0,0.4,0.1c0.6,0.3,1.2,0.2,1.7-0.1c0.3-0.2,0.7-0.2,1.1,0c0.7,0.4,1.3,0.4,1.9,0c0.3-0.2,0.6-0.2,0.9-0.1l0.9,0.4
	c0.3,0.1,0.7,0.1,1-0.1c0.6-0.4,1.2-0.4,1.8,0c0.3,0.2,0.7,0.2,1,0c1.2-0.6,2,0,3,0c12.1,0,24.1-0.1,36.2,0c0.8,0,1.4,0.5,2.4,0
	c0.3-0.1,0.7-0.1,1,0c0.6,0.4,1.2,0.3,1.9-0.1c0.3-0.2,0.6-0.2,0.9-0.1l0.8,0.3c0.3,0.1,0.6,0.1,0.9-0.1c0.7-0.4,1.4-0.4,2,0
	c0.3,0.2,0.8,0.2,1.2,0l0.3-0.2c0.3-0.2,0.8-0.2,1.1,0c0.8,0.5,1.5,0.5,2.2,0.1c0.3-0.2,0.7-0.2,1,0c0.7,0.4,1.4,0.4,2.1-0.1
	c0.3-0.2,0.7-0.2,1-0.1l0.8,0.4c0.4,0.2,0.8,0.1,1.1-0.1c0.5-0.4,1.1-0.4,1.7,0c0.3,0.2,0.7,0.3,1.1,0.1l0.8-0.4
	c0.3-0.2,0.7-0.1,1.1,0.1c0.6,0.5,1.2,0.5,1.9,0c0.3-0.2,0.7-0.2,1-0.1l0.6,0.3c0.3,0.2,0.7,0.1,1-0.1c0.7-0.5,1.4-0.5,2,0
	c0.4,0.3,0.9,0.3,1.3,0c0.6-0.5,1.2-0.5,1.8,0c0.4,0.3,1,0.2,1.3-0.2c0.5-0.6,1.1-0.6,1.6,0c0.3,0.3,0.8,0.4,1.2,0.2l0.7-0.3
	c0.3-0.2,0.7-0.2,1,0.1c0.6,0.5,1.3,0.4,1.9,0c0.3-0.2,0.7-0.3,1-0.1l0.9,0.5c0.4,0.2,0.8,0.1,1.1-0.1c0.5-0.4,1.1-0.4,1.6,0
	c0.3,0.2,0.7,0.3,1.1,0.1l0.9-0.5c0.4-0.2,0.8-0.1,1.1,0.1c0.6,0.5,1.1,0.5,1.6,0.1c0.3-0.3,0.8-0.3,1.2-0.1c0.7,0.5,1.3,0.4,2-0.1
	c0.3-0.3,0.8-0.3,1.2,0l0.4,0.3c0.4,0.3,0.9,0.2,1.2-0.1c0.6-0.5,1.2-0.5,1.9,0c0.3,0.3,0.8,0.3,1.2,0l0.3-0.2
	c0.3-0.2,0.8-0.2,1.1,0c0.7,0.5,1.4,0.5,2.1,0c0.4-0.3,0.9-0.2,1.3,0.1c0.5,0.5,1.1,0.5,1.7,0c0.3-0.3,0.7-0.3,1.1-0.1l0.9,0.4
	c0.4,0.2,0.8,0.1,1.1-0.1c0.5-0.4,1.1-0.4,1.7,0c0.3,0.2,0.7,0.3,1.1,0.1l0.8-0.4c0.3-0.2,0.7-0.1,1,0.1c0.6,0.4,1.2,0.5,1.8,0
	c0.3-0.2,0.8-0.2,1.1,0c0.7,0.4,1.3,0.4,2-0.1c0.4-0.3,0.8-0.3,1.2,0c0.6,0.5,1.3,0.5,1.9,0c0.3-0.3,0.8-0.3,1.2,0
	c0.7,0.4,1.3,0.4,2,0c0.3-0.2,0.8-0.2,1.2,0c0.7,0.5,1.3,0.5,2.1,0.1c0.3-0.2,0.7-0.2,1,0c0.7,0.4,1.3,0.4,2-0.1
	c0.4-0.3,0.8-0.2,1.2,0c0.7,0.5,1.4,0.5,2.1,0.1c0.3-0.2,0.7-0.2,1,0c0.7,0.4,1.4,0.4,2.1-0.1c0.3-0.2,0.8-0.2,1.1,0l0.4,0.3
	c0.4,0.3,0.9,0.2,1.2-0.1c0.5-0.4,1.1-0.4,1.7,0.1c0.3,0.2,0.8,0.3,1.1,0l0.5-0.3c0.4-0.3,0.9-0.2,1.3,0.2c0.5,0.5,1.1,0.5,1.8,0
	c0.3-0.3,0.8-0.3,1.2-0.1l0.4,0.3c0.4,0.3,0.9,0.2,1.3-0.2c0.6-0.6,1.2-0.6,1.7,0c0.4,0.3,0.9,0.4,1.3,0.1c0.6-0.5,1.3-0.5,2,0
	c0.3,0.2,0.7,0.2,1,0.1l0.7-0.4c0.3-0.2,0.7-0.1,1,0.1c0.7,0.5,1.4,0.5,2.1,0.1c0.3-0.2,0.7-0.2,1.1,0c0.7,0.4,1.4,0.4,2,0
	c0.3-0.3,0.8-0.3,1.2,0c0.6,0.4,1.2,0.4,1.8,0c0.3-0.3,0.8-0.3,1.2,0c0.7,0.5,1.3,0.5,2,0c0.3-0.3,0.8-0.3,1.2,0l0.5,0.3
	c0.4,0.2,0.9,0.2,1.2-0.1c0.6-0.5,1.2-0.5,1.9,0c0.3,0.2,0.8,0.2,1.1,0l0.4-0.2c0.3-0.2,0.8-0.2,1.1,0c0.7,0.5,1.4,0.5,2.2,0.1
	c0.3-0.2,0.8-0.2,1.1,0c0.6,0.4,1.1,0.3,1.8-0.1c0.3-0.2,0.7-0.2,1-0.1l1.1,0.5c0.3,0.1,0.7,0.1,1-0.2c0.5-0.4,1.1-0.4,1.6,0
	c0.3,0.2,0.7,0.3,1.1,0.1l0.9-0.4c0.3-0.2,0.7-0.1,1,0.1c0.6,0.5,1.2,0.5,1.8,0.1c0.3-0.2,0.7-0.2,1-0.1l0.7,0.3
	c0.3,0.2,0.7,0.1,1-0.1c0.7-0.5,1.3-0.5,1.9-0.1c0.4,0.3,0.8,0.3,1.2,0c0.6-0.4,1.2-0.4,1.8,0c0.3,0.2,0.6,0.2,0.9,0.1l0.9-0.4
	c0.3-0.1,0.6-0.1,0.9,0.1c0.7,0.4,1.5,0.5,2.2,0.1c0.3-0.2,0.7-0.2,1,0c0.7,0.4,1.3,0.4,2,0c0.3-0.2,0.6-0.2,0.9-0.1l2.5,0.9
	c0.2,0.1,0.4,0.1,0.7,0l2.5-0.9c0.3-0.1,0.6-0.1,0.9,0.1c0.7,0.4,1.4,0.5,2,0.1c0.3-0.2,0.7-0.2,1,0c0.7,0.4,1.3,0.4,1.9,0
	c0.3-0.2,0.6-0.2,1-0.1l0.9,0.4c0.3,0.1,0.7,0.1,1-0.1c0.6-0.4,1.2-0.4,1.8,0c0.3,0.2,0.7,0.2,1,0.1l0.8-0.4c0.3-0.2,0.7-0.1,1,0.1
	c0.7,0.5,1.5,0.5,2.2,0.1c0.3-0.2,0.7-0.2,1,0c0.6,0.4,1.3,0.4,2-0.1c0.3-0.2,0.7-0.2,1-0.1l0.8,0.4c0.4,0.2,0.8,0.1,1.1-0.1
	c0.5-0.4,1.1-0.4,1.7,0c0.3,0.2,0.7,0.3,1.1,0.1l0.9-0.5c0.4-0.2,0.8-0.1,1.1,0.1c0.6,0.5,1.1,0.5,1.6,0.1c0.3-0.3,0.8-0.3,1.2-0.1
	c0.7,0.5,1.3,0.4,2-0.1c0.3-0.2,0.8-0.3,1.1-0.1l0.6,0.4c0.4,0.2,0.8,0.2,1.1-0.1c0.6-0.5,1.2-0.5,1.8,0c0.3,0.3,0.8,0.3,1.2,0.1
	l0.3-0.2c0.4-0.2,0.8-0.2,1.2,0c0.6,0.5,1.3,0.5,2,0c0.3-0.2,0.8-0.2,1.1,0c0.7,0.5,1.4,0.5,2.1,0c0.3-0.2,0.7-0.2,1-0.1l0.7,0.4
	c0.3,0.2,0.7,0.1,1-0.1c0.6-0.5,1.2-0.5,1.8,0c0.4,0.3,0.9,0.3,1.2,0c0.6-0.5,1.3-0.5,2,0c0.3,0.2,0.8,0.2,1.1,0l0.4-0.2
	c0.4-0.2,0.8-0.2,1.2,0c0.6,0.5,1.3,0.5,1.8,0c0.3-0.3,0.8-0.3,1.2-0.1l0.5,0.3c0.4,0.2,0.8,0.2,1.1,0c0.6-0.4,1.2-0.4,1.8,0
	c0.4,0.3,0.9,0.2,1.3-0.1c0.6-0.6,1.2-0.6,1.9,0c0.4,0.3,0.9,0.3,1.3,0c0.5-0.4,1-0.4,1.7,0c0.3,0.2,0.6,0.2,1,0.1l1.1-0.4
	c0.3-0.1,0.7-0.1,1,0.1c0.6,0.5,1.2,0.5,1.9,0.1c0.3-0.2,0.7-0.2,1.1,0c0.7,0.4,1.4,0.4,2.1-0.1c0.3-0.2,0.8-0.2,1.1,0l0.4,0.3
	c0.4,0.2,0.8,0.2,1.2,0c0.6-0.5,1.2-0.5,1.8,0c0.4,0.3,0.9,0.3,1.3,0c0.6-0.6,1.3-0.6,1.9,0c0.4,0.3,0.9,0.3,1.3,0
	c0.6-0.5,1.2-0.5,1.8,0c0.4,0.3,0.9,0.3,1.3,0c0.5-0.5,1.1-0.5,1.8,0c0.3,0.2,0.7,0.3,1.1,0.1l0.8-0.4c0.3-0.2,0.7-0.1,1,0.1
	c0.7,0.5,1.3,0.5,1.9,0c0.3-0.3,0.8-0.3,1.2,0c0.7,0.5,1.3,0.5,2,0.1c0.3-0.2,0.7-0.2,1,0c0.8,0.4,1.5,0.4,2.2-0.1
	c0.4-0.3,0.9-0.2,1.2,0.1c0.5,0.5,1.1,0.5,1.7,0c0.3-0.3,0.8-0.3,1.2-0.1l0.5,0.3c0.4,0.2,0.9,0.2,1.2-0.1c0.6-0.6,1.2-0.6,1.7,0
	c0.4,0.4,0.9,0.4,1.3,0.1c0.5-0.4,1.1-0.4,1.7,0.1c0.3,0.3,0.8,0.3,1.2,0.1l0.6-0.4c0.4-0.3,0.9-0.2,1.2,0.1
	c0.6,0.6,1.2,0.6,1.9,0.1c0.3-0.3,0.8-0.3,1.2,0c0.6,0.4,1.2,0.4,1.8-0.1c0.3-0.3,0.8-0.3,1.2,0c0.7,0.5,1.4,0.5,2.2,0.1
	c0.3-0.2,0.7-0.2,1,0c0.7,0.4,1.4,0.4,2.1-0.1c0.3-0.2,0.8-0.3,1.1,0l0.4,0.3c0.4,0.2,0.8,0.2,1.2,0c0.6-0.5,1.2-0.5,1.8,0
	c0.4,0.3,0.9,0.3,1.3-0.1c0.6-0.5,1.1-0.5,1.7,0c0.4,0.4,0.9,0.4,1.3,0.1c0.6-0.5,1.2-0.5,1.8,0c0.4,0.3,0.9,0.3,1.3-0.1
	c0.6-0.6,1.1-0.6,1.7,0c0.4,0.3,0.9,0.4,1.3,0.1c0.7-0.5,1.3-0.5,2.1,0c0.3,0.2,0.8,0.2,1.2,0c0.7-0.5,1.3-0.5,2.1,0
	c0.4,0.3,0.8,0.2,1.2,0c0.6-0.5,1.2-0.4,1.9,0c0.4,0.3,0.8,0.2,1.2,0c0.7-0.5,1.3-0.5,2,0c0.4,0.3,0.9,0.3,1.2,0
	c0.6-0.5,1.2-0.4,1.8,0c0.4,0.3,1,0.3,1.3-0.1c0.6-0.6,1.2-0.6,1.8,0c0.4,0.3,0.9,0.4,1.3,0.1c0.6-0.4,1.2-0.4,1.8,0.1
	c0.3,0.2,0.8,0.2,1.1,0l0.6-0.3c0.4-0.2,0.9-0.2,1.2,0.1c0.6,0.6,1.2,0.6,1.8,0.1c0.3-0.3,0.8-0.3,1.1-0.1c0.7,0.4,1.5,0.4,2.2-0.1
	c0.4-0.3,1-0.2,1.3,0.1c0.5,0.5,1,0.6,1.6,0.1c0.3-0.3,0.8-0.3,1.2-0.1c0.7,0.5,1.4,0.5,2.2,0c0.4-0.3,0.9-0.2,1.3,0.1
	c0.5,0.5,1.1,0.5,1.7,0c0.3-0.3,0.8-0.3,1.1-0.1l0.6,0.3c0.4,0.2,0.9,0.1,1.2-0.2c0.6-0.6,1.1-0.6,1.7,0c0.4,0.4,0.9,0.4,1.3,0.1
	c0.6-0.5,1.2-0.4,1.9,0c0.3,0.2,0.8,0.2,1.1,0l0.5-0.3c0.4-0.2,0.9-0.2,1.2,0.1c0.6,0.6,1.3,0.6,2,0c0.4-0.3,0.9-0.3,1.3,0.1
	c0.5,0.5,1.1,0.5,1.7-0.1c0.3-0.3,0.8-0.3,1.2-0.1c0.7,0.5,1.4,0.5,2.1,0.1c0.3-0.2,0.7-0.2,1,0c0.7,0.4,1.5,0.4,2.3-0.1
	c0.3-0.2,0.7-0.2,1,0l0.5,0.3c0.3,0.2,0.7,0.1,1-0.1c0.6-0.4,1.2-0.4,1.9,0c0.4,0.3,1,0.2,1.3-0.1
	C1099.7,76.9,1100.2,76.9,1100.8,77.5z"/>
<path id="文胸_侧托里R" renderOrder="0" class="st1" d="M766,95.3c0.4-0.4,0.8-0.8,1.2-1.2c0.2-0.2,0.5-0.3,0.8-0.2
	c54.4,8.5,107.9,15.7,158.6,38.4c0,0,0.1,0,0.1,0.1c29.1,17.2,54.5,37.3,75.3,63.6c6.3,7.9,12.4,15.9,18.4,24
	c0.7,0.9,0.4,1.3-0.7,1.3c-42.2-1.2-84.5-1.3-126.8-0.2c-46.5,1.2-92.9,2.4-139.4,3.7c-3.1,0.1-8.3,0-15.7-0.1
	c-37.7-0.8-75.4-2.2-113.2-4.1c-0.5,0-0.9-0.4-1-0.9l-2.8-55.7c0-0.5,0.3-1,0.9-1c23.9-3.8,48.4-8.2,71.7-15.4
	C723.7,138.1,745.4,118.2,766,95.3z"/>
<path id="文胸上杯面L" renderOrder="1" class="st1" d="M1095.2,224.5c-0.4,0-0.8-0.2-1-0.6c-9.3-21.2-19.4-41.9-30.4-62.1
	c-12.2-22.4-24.8-44.6-37.8-66.6c-0.6-1-0.3-1.5,0.9-1.5h376.8c0.5,0,0.9,0.3,1,0.8c7.4,31.6,13.8,63.4,19.3,95.3
	c0.1,0.6-0.3,1.1-0.8,1.2c0,0,0,0-0.1,0c-106.9,10.6-213.7,21.6-320.7,32.9C1100,224.2,1097.6,224.4,1095.2,224.5z"/>
<path id="文胸_上杯面R" renderOrder="1" class="st1" d="M1026.2,324.3c-0.5-0.1-0.9-0.5-0.9-1.1c0,0,0,0,0-0.1c1.4-7.8,2.8-15.5,4.2-23.3
	c4.3-24.1,9.8-48.1,15-72.1c0.1-0.5,0.5-0.8,1-0.8h376.7c0.6,0,1,0.4,1,1c0,0.2,0,0.4-0.1,0.5c-10.1,17.7-20.2,35.4-30.1,53.2
	c-14,24.9-26.7,50.2-38,75.8c-0.2,0.4-0.6,0.6-1,0.6C1244.8,346.4,1135.5,335.2,1026.2,324.3z"/>
<path id="文胸_侧托里L" renderOrder="0" class="st1" d="M621.8,289.1c-0.5-0.1-0.9-0.5-0.8-1l2.8-55.5c0-0.5,0.4-0.9,0.9-0.9
	c39.4-2.2,70-3.5,91.7-4.1c57.3-1.4,120.6,1.7,180.8,3.7c36.1,1.2,77,1.1,122.5-0.4c1.1,0,1.3,0.4,0.7,1.3
	c-7.5,10.2-14.7,19.5-21.7,28c-18,21.9-39.8,39.6-63.8,54.8c-4.9,3.1-10,5.8-15.4,8c-25.7,10.8-52.9,18.7-81.6,23.7
	c-28.8,5-52.1,8.9-69.9,11.6c-0.3,0.1-0.7-0.1-0.9-0.3c-21.3-23.2-42.9-43.7-73.9-53.2C670,297.5,646.1,293.3,621.8,289.1z"/>
<path id="钢圈套L" renderOrder="0"  class="st1" d="M398.6,410.5h474.4c0.3,0,0.6,0.3,0.6,0.6v48.9c0,0.3-0.3,0.6-0.6,0.6H398.6
	c-0.3,0-0.6-0.3-0.6-0.6v-48.9C398,410.8,398.3,410.5,398.6,410.5z"/>
<path id="钢圈套R" renderOrder="0" class="st1" d="M877.5,410.5h475c0.1,0,0.3,0.1,0.3,0.3v49.5c0,0.1-0.1,0.3-0.3,0.3h-475
	c-0.1,0-0.3-0.1-0.3-0.3v-49.5C877.2,410.6,877.4,410.5,877.5,410.5z"/>
<path id="肩带R1" renderOrder="0" class="st1" d="M398.3,464.8h57.9c0.1,0,0.3,0.1,0.3,0.3v432.7c0,0.1-0.1,0.3-0.3,0.3h-57.9
	c-0.1,0-0.3-0.1-0.3-0.3V465C398,464.9,398.1,464.8,398.3,464.8z"/>
<path id="文胸_鸡心面" renderOrder="0" class="st1" d="M461.5,690.2c-0.5,0-1-0.5-1-1l0.4-124.4c0-0.5,0.4-1,1-1c8.2-0.1,16.3-0.6,24.3-1.5
	c12.8-1.5,24.2-6.7,34.7-14c14.3-9.9,24.1-25.1,29.8-41.4c4.8-13.7,9.2-27.5,13.2-41.5c0.1-0.5,0.6-0.8,1-0.7l43,3.9
	c0.5,0,0.9,0.4,0.9,0.9c1.5,14.3,3.3,28.5,5.4,42.7c2.6,16.9,9.3,33.7,21.4,46c8.7,9,19.1,16.6,31.4,20.4c8,2.5,16.1,4.5,24.2,6.2
	c0.5,0.1,0.9,0.6,0.8,1.2l-22.1,122.5c-0.1,0.5-0.6,0.9-1.1,0.8c-8.3-1.3-16.5-2.5-24.8-3.7c-5.5-0.8-12.1-1.7-19.8-2.9
	c-34.4-5.1-68.9-8.5-103.7-10C502.4,691.9,482.7,691,461.5,690.2z"/>
<path id="文胸侧托面L" renderOrder="2" class="st1" d="M819.8,466.9c1.5,0.1,3,0.1,4.4,0.1c0.5,0,1,0.4,1,0.9c1.3,18.7,2.2,37.2,2.9,55.4
	c1.5,43-3.9,84.6-12.3,126.7c-0.9,4.4-2.1,8.6-3.6,12.7c-7.3,19.2-15,36.3-22.9,51.3c-14.1,26.6-28.9,52.8-44.4,78.6
	c-0.6,0.9-1,0.9-1.4-0.1c-2.4-6.4-4.8-12.7-7.1-19.2c-1.8-5-4.1-11.3-6.8-18.8c-11.1-30.3-19.8-61.2-26.1-92.9
	c-3-15.1-4.8-31.7-7.3-47.6c-0.1-0.3,0.1-0.7,0.3-0.9c18.5-17.3,35.3-37,46.6-58.8c2.1-4.1,3.9-8.5,5.3-13.2
	c7.3-24.6,11.7-50.4,15.5-75.6c0.1-0.5,0.5-0.9,1-0.9C783.5,465.4,801.9,466.1,819.8,466.9z"/>
<path id="文胸_下杯内袋L" renderOrder="0" class="st1" d="M832.1,620.5c-0.4-0.2-0.6-0.6-0.6-1l16-132.8c0-0.4,0.4-0.8,0.8-0.9
	c16.6-3.8,33.2-7.6,50-11.4c47.7-10.8,97.7-17.9,140.4,9.9c18.5,12,33.3,31.2,46.8,49.9c7.7,10.8,15.2,21.8,22.4,33.1
	c0.3,0.4,0.2,1-0.2,1.3c-9.4,8.2-19,16.4-28.6,24.6c-11.4,9.6-23.3,18.6-35.8,26.8c-27.8,18.3-58.3,27.9-91.3,28.7
	C910.2,649.8,869.7,637,832.1,620.5z"/>
<path id="文胸_侧杯棉L" renderOrder="0" class="st1" d="M1310.1,545.6c0.9,37.4-1.9,74.8-5.2,112.1c0,0.5-0.5,0.9-1,0.9
	c-16.5-0.5-34-1.7-52.4-3.6c-32-3.3-63.9-12.2-91.6-28.3c-16.5-9.5-32.8-19.5-48.8-29.9c-0.3-0.2-0.5-0.6-0.4-1
	c4.7-31.7,8-63.5,9.9-95.5c0-0.4,0.3-0.8,0.7-0.9c32.8-8.6,66.4-17,100-22.6c27.5-4.6,55-8.6,82.6-11.9c0.5-0.1,1,0.3,1.1,0.9
	c0,0,0,0,0,0C1307.8,492.3,1309.5,518.9,1310.1,545.6z"/>
<path id="文胸_上杯夹棉R" renderOrder="0" class="st1" d="M1329.4,476.8c0.1-0.4,0.4-0.8,0.8-0.9l82-11.1c0.5-0.1,1.1,0.3,1.1,0.9
	c0,0.1,0,0.1,0,0.2c-1.1,20.3-2.3,45.3-3.5,75.1c-1.7,42.4-2.4,84.9,0.4,126.4c0.4,6.1,0.8,12.2,1,18.3c0,0.5-0.4,1-0.9,1
	c-31.5,2.4-63.1,4-94.8,4.9c-0.5,0-1-0.4-1-0.9c-1.6-21.3-2.1-39.7-1.6-55.1C1314.6,584.7,1321.9,529.6,1329.4,476.8z"/>
<path id="文胸_后比L" renderOrder="0" class="st1" d="M0,803.2v-1.5c30.9-54.3,60.3-110.6,82.2-169.6c15.5-41.8,29.9-83.9,43.1-126.5
	c0.2-0.5,0.7-0.8,1.2-0.7c0.2,0.1,0.3,0.1,0.4,0.3c20.7,22.2,42.1,43.8,64.2,64.8c49.3,46.8,112.5,88.7,183.4,84.7
	c6.1-0.3,12.2-0.7,18.3-1.1c0.6,0,1,0.4,1.1,0.9c0,0,0,0,0,0.1c0,60.9,0,121.8,0,182.6c0,0.1,0,0.3,0.1,0.4c0.1,0.4,0.2,0.7,0.2,0.9
	v129.7c0,0.6-0.4,1-1,1c0,0,0,0-0.1,0c-61.2-3.8-121.5-6.5-180.9-8.1c-6.6-0.2-13.2-0.2-20-0.2c-58,0.4-116.1,1.3-174.1,2.8
	c-0.5,0-1-0.4-1-0.9L0,803.2z"/>
<path id="文胸_上杯中棉R" renderOrder="0" class="st1" d="M833.9,660.4c0-0.5,0.4-0.9,0.9-0.9c14.6-2,29.4-3.8,44.3-5.4
	c13.8-1.5,29.4-2,46.9-1.5c0.5,0,1,0.5,1,1c0,31.6-0.5,63.2-1.4,94.7c0,0.5-0.5,1-1,1c-30.6,0-61.2,0.4-91.7,1.4c-0.5,0-1-0.4-1-0.9
	c0,0,0,0,0,0C831.5,719.9,832.2,690.1,833.9,660.4z"/>
<path id="肩带R2" renderOrder="0" class="st1" d="M929.7,652.2h57.5c0.2,0,0.3,0.2,0.3,0.3v129.6c0,0.2-0.2,0.3-0.3,0.3h-57.5
	c-0.2,0-0.3-0.2-0.3-0.3V652.6C929.3,652.4,929.5,652.2,929.7,652.2z"/>
<path id="肩带L2" renderOrder="0" class="st1" d="M992.3,652.3h57.3c0.3,0,0.6,0.3,0.6,0.6v129.1c0,0.3-0.3,0.6-0.6,0.6h-57.3
	c-0.3,0-0.6-0.3-0.6-0.6V652.8C991.8,652.5,992,652.3,992.3,652.3z"/>
<path id="钢圈套R1" renderOrder="0" class="st1" d="M1054.8,652.4l40.2-0.1c0.2,0,0.4,0.2,0.4,0.4l0.4,105.6c0,0.2-0.2,0.4-0.4,0.4l-40.2,0.1
	c-0.2,0-0.4-0.2-0.4-0.4l-0.4-105.6C1054.4,652.6,1054.6,652.4,1054.8,652.4z"/>
<path id="文胸_上杯心位棉L" renderOrder="0"  class="st1" d="M1317.9,788.2c-0.5,0-0.9-0.4-1-0.9c-1.9-30.7-3.3-61.4-4.2-92.2c0-0.6,0.4-1,1-1
	c0.1,0,0.1,0,0.2,0c34.5,5.1,68.8,10.8,103.1,17c0.4,0.1,0.8,0.4,0.8,0.9c3.1,26.3,5.4,52.7,6.8,79.2c0,0.6-0.4,1-0.9,1
	c0,0-0.1,0-0.1,0L1317.9,788.2z"/>
<path id="文胸_下杯内袋R" renderOrder="0" class="st1" d="M501.4,934.6c-2.4-2.3-3.9-3.8-4.5-4.5c-33.1-40.6-30.9-90.5-20.1-139.1
	c4.6-20.6,9.2-41.1,14-61.5c0.1-0.4,0.4-0.7,0.9-0.8l132.7-16c0.4-0.1,0.9,0.2,1,0.6c18.1,42.6,31.1,85.6,27.5,131.9
	c-4.7,59.5-42,101.1-79.4,143.5c-0.3,0.4-0.9,0.4-1.3,0.2c-9.5-6.2-18.8-12.4-27.7-18.7C529.7,959.8,515.3,947.9,501.4,934.6z"/>
<path id="肩带R3" renderOrder="0" class="st1" d="M832,754.2h57.1c0.3,0,0.5,0.2,0.5,0.5v39.6c0,0.3-0.2,0.5-0.5,0.5H832c-0.3,0-0.5-0.2-0.5-0.5
	v-39.6C831.5,754.5,831.7,754.2,832,754.2z"/>
<path id="文胸_侧杯棉R" renderOrder="0" class="st1" d="M702.6,992c-0.5,0-1-0.4-1-0.9c-1.4-16.6-2.6-33.2-3.7-49.9c-1.3-21-1.9-42.1-1.6-63.2
	c0.2-20.2,1.9-46.5,5-78.8c0.1-0.5,0.5-1,1.1-0.9c0,0,0,0,0,0c24.6,2.9,49.1,6.4,73.5,10.4c36.9,6,73,14.9,109.2,24
	c0.4,0.1,0.7,0.5,0.8,0.9c1.9,32,5.3,63.9,10,95.7c0.1,0.4-0.1,0.8-0.5,1c-15.2,9.8-30.5,19.2-45.8,28.2
	C818,977,784,985.7,747.9,989C732.8,990.5,717.7,991.5,702.6,992z"/>
<path id="文胸_心位棉R" renderOrder="0" class="st1" d="M1240.1,852.6c3,47.3,0,94.1-4.3,141.3c-0.1,0.6-0.6,1-1.1,0.9c0,0-0.1,0-0.1,0
	c-12.9-2.6-25.9-5.6-38.8-8.8c-28.1-7.1-56.5-22.3-80.5-38.4c-14.7-9.9-29.1-20-43.4-30.4c-0.4-0.3-0.5-0.9-0.3-1.3
	c8.4-14.5,17.1-28.7,26.2-42.5c10.2-15.5,26-34.7,42.5-44.8c17.5-10.7,38.1-20.7,58.4-24.5c12.1-2.2,24.2-4.2,36.4-5.8
	c0.5-0.1,1.1,0.3,1.1,0.9c0,0,0,0,0,0C1237.2,810.6,1238.5,828.4,1240.1,852.6z"/>
<path id="文胸_心位面R" renderOrder="0" class="st1" d="M1244.8,917c-0.4-0.3-0.6-0.9-0.3-1.3c7-12.2,14.3-24.1,22-35.9
	c9-13.9,19.2-26.9,30.6-38.9c4.7-5,9.3-9.3,15.2-13c17.1-10.5,37.4-20.6,57.2-24.3c10.7-2,21.5-3.8,32.6-5.2
	c0.6-0.1,1.1,0.3,1.1,0.9c0,0,0,0,0,0c2.2,25.5,3.7,51.2,4.5,77.1c0.5,15.2,0.1,33.1-1,53.7c-1,18-2.3,36-3.9,53.9
	c-0.1,0.5-0.5,1-1.1,0.9c0,0-0.1,0-0.1,0c-6.7-1.3-13.3-2.6-20-4c-23-4.7-45.3-13.1-66.4-23.4C1291,945.5,1267.6,932,1244.8,917z"/>
<path id="文胸_心位棉L" renderOrder="0" class="st1" d="M995.3,826.2c16.2,9.1,32.1,26.5,43.1,42.4c9.7,14,19.6,29.7,29.6,47.2
	c0.3,0.4,0.1,1-0.3,1.3c-19.8,14.6-37.6,26.9-53.3,36.9c-20.2,12.8-45.1,25.4-69.1,31.6c-13.4,3.5-26.8,6.5-40.3,9.2
	c-0.5,0.1-1.1-0.2-1.2-0.8c0,0,0-0.1,0-0.1c-1.7-18.2-3.1-36.4-4.2-54.6c-1.8-28.1-1.8-56.3-0.3-84.4c1-18.5,2.4-37,4.1-55.5
	c0-0.5,0.5-1,1.1-0.9c0,0,0,0,0.1,0c12.8,1.7,25.5,3.7,38.1,6.1C960.8,807.9,978.8,816.9,995.3,826.2z"/>
<path id="肩带L1" renderOrder="0"  class="st1" d="M398.5,900h57.4c0.3,0,0.5,0.2,0.5,0.5V1333c0,0.3-0.2,0.5-0.5,0.5h-57.4c-0.3,0-0.5-0.2-0.5-0.5
	V900.5C398,900.2,398.2,900,398.5,900z"/>
<path id="文胸_侧比R" renderOrder="0"  class="st1" d="M0.1,1207.9l-0.1-20c15.5-1.3,30.9-2.1,46.4-4.4c3.4-0.5,6.6-1.4,9.5-2.6
	c22.2-9.5,43.1-26,54.8-47.4c15.6-28.4,26.6-60.9,34.5-91.6c5.9-22.5,11.7-45.1,17.6-67.6c0.1-0.5,0.7-0.9,1.2-0.7
	c0.1,0,0.2,0.1,0.3,0.1c17.7,12,36.1,22.7,55.2,32.2c0.4,0.2,0.6,0.6,0.6,1l-39.7,307.5c-0.1,0.5-0.5,0.9-1,0.9
	c-59.2-1.4-118.5-1.7-177.7-0.7c-0.5,0-1-0.4-1-1c0,0,0,0,0,0L0.1,1207.9z"/>
<path id="文胸_心位面L" renderOrder="0" class="st1" d="M329.3,1011.5c14.6,14.5,28.2,32.1,41,52.8c7.9,12.7,13.2,21.6,16.1,26.5
	c0.3,0.5,0.1,1-0.3,1.3c-8.7,5.7-17.5,11.2-26.4,16.5c-21.2,12.8-43.3,24-66.1,33.6c-13.1,5.5-23.8,9.2-32,11
	c-10.7,2.4-21.4,4.6-32.1,6.7c-0.5,0.1-1.1-0.3-1.2-0.8c0,0,0-0.1,0-0.1c-1.8-19.5-3.2-39-4.2-58.5c-1.2-23.7-1.2-47.3,0-71
	c0.9-18.5,2.2-36.9,3.7-55.2c0-0.6,0.5-1,1.1-0.9c0,0,0,0,0.1,0c10.7,1.5,21.3,3.2,31.9,5.1c6,1.1,11.4,2.6,16.4,4.4
	c16,5.9,31.2,13.4,45.6,22.7C325.1,1007.1,327.2,1009.4,329.3,1011.5z"/>
<path id="文胸_侧托面R" renderOrder="2" class="st1" d="M589.6,1137c0.9,0.9,2.6,2.1,3.6,3.4c0.2,0.2,0.3,0.5,0.2,0.8
	c-2.5,15.1-4.3,31.3-7,45.4c-4.8,25.4-10.6,48.4-17.6,69.1c-7.2,21.4-14.8,42.7-22.9,63.9c-0.4,1-0.9,1.1-1.4,0.1
	c-11.1-18.7-22-37.6-32.7-56.6c-13.1-23.4-24.6-47.6-34.3-72.6c-3.3-8.4-4.7-17.3-6.4-26.2c-8.2-40.9-11.4-82.6-9.4-124.3
	c0.7-14.9,1.5-29.9,2.5-44.8c0-0.5,0.4-0.9,1-0.9l59.5-2.4c0.5,0,1,0.3,1,0.9c2.2,14.6,4.8,29.2,7.7,43.7c2.9,14.5,6.1,31.5,13,44.6
	C557.3,1102.3,572.5,1119.9,589.6,1137z"/>
<path id="橡筋L" renderOrder="0" class="st1" d="M754,1289.8l-57.4,37.9c-0.2,0.1-0.5,0.1-0.6-0.1c0-0.1-0.1-0.2-0.1-0.2V996.4
	c0-0.2,0.2-0.4,0.4-0.4l0,0h57.4c0.2,0,0.4,0.2,0.4,0.4l0,0v292.9C754.3,1289.5,754.2,1289.7,754,1289.8z"/>
<path id="橡筋R" renderOrder="0" class="st1" d="M814.5,1311.6c0,4.6,0,9.5,0.1,14.6c0,1.3-0.5,1.5-1.6,0.8l-56.3-37.1c-0.3-0.2-0.4-0.5-0.5-0.8
	V997c0-0.6,0.4-1,1-1h56.4c0.6,0,1,0.4,1,1C814.9,1101.8,814.8,1206.7,814.5,1311.6z"/>
<path id="文胸_耳仔里R" renderOrder="0" class="st1" d="M988.1,1202.9c-32.3-22.5-62-47.7-89-76.4c-0.2-0.2-0.3-0.4-0.3-0.7
	c-0.8-40.6-0.7-81.3,0.1-121.9c0-0.5,0.4-0.9,0.9-1l55.5-4.9c0.5,0,1,0.3,1.1,0.8c4.7,24.3,10.2,49.2,18.5,72.7
	c9.5,27.4,33.7,51.4,55.3,70.2c0.2,0.2,0.4,0.5,0.3,0.9l-10.2,80.6c-0.1,0.5-0.6,0.9-1.1,0.9c-0.2,0-0.3-0.1-0.4-0.2
	c-5.3-3.6-10.6-7.2-15.9-10.9C1002.7,1213.1,997.8,1209.7,988.1,1202.9z"/>
<path id="文胸_鸡心花R" renderOrder="1" class="st1" d="M1128.4,1148.8c-9.3-0.3-21.5-0.2-36.6,0.2c-18.6,0.5-37.3,1-56.1,1.5
	c-1.5,0-1.7-0.5-0.8-1.6l124.1-150.2c0.3-0.4,0.8-0.5,1.2-0.2c10.6,5.4,21.3,10.8,32.1,16.1c11.5,5.7,27.6,7.4,40.2,9
	c0.5,0.1,0.9,0.5,0.9,1.1l-11.4,127.8c0,0.5-0.5,1-1.1,0.9C1190.2,1151.3,1159.4,1149.8,1128.4,1148.8z"/>
<path id="文胸_鸡心花L" renderOrder="2" class="st1" d="M1371.9,1148.8c-8.7-0.3-21.3-0.2-31.9,0.2c-30,1.1-60,2.5-89.8,4.4
	c-0.5,0-1-0.4-1.1-0.9l-11.4-127.7c0-0.5,0.3-1,0.9-1.1c12.7-1.8,25.8-3.4,37.7-8.1c11.7-4.7,23.1-11.3,34.8-17.1
	c0.4-0.2,0.9-0.1,1.2,0.3l124.1,150.2c0.9,1.1,0.7,1.7-0.8,1.6C1414.4,1150,1393.1,1149.4,1371.9,1148.8z"/>
<path id="文胸_侧杯面R" renderOrder="1" class="st1" d="M1034.5,1340.6c-0.5,0-0.9-0.5-0.9-1c-0.3-26.1,0.3-52.3,1.9-78.6
	c2-34.5,7.4-69.4,13.8-103.7c0.1-0.5,0.6-0.9,1.2-0.8c0,0,0,0,0,0c51.1,11.3,101.5,25,151.2,41.3c0.5,0.2,0.8,0.7,0.6,1.3
	c0,0.1-0.1,0.1-0.1,0.2c-17.3,28.2-32.8,57.4-46.7,87.4c-7.4,15.9-14.3,33-21.5,49.5c-0.1,0.3-0.4,0.5-0.7,0.6
	c-23.7,4.3-47.6,5.9-71.6,5C1053.8,1341.5,1044.7,1341.1,1034.5,1340.6z"/>
<path id="文胸_侧杯面L" renderOrder="1" class="st1" d="M1375.6,1339.6c0,0.5-0.4,1-0.9,1c-12.9,0.9-25.7,1.5-38.4,1.8
	c-20,0.5-40.7-2.4-60.4-5.5c-0.3-0.1-0.6-0.3-0.8-0.6c-11.7-28.3-20.4-48.3-26.1-59.9c-12.8-26.3-26.8-52-41.9-77
	c-0.3-0.5-0.1-1.1,0.3-1.4c0.1,0,0.1-0.1,0.2-0.1c49.7-16.2,100.1-30,151.2-41.3c0.5-0.1,1.1,0.2,1.2,0.8c0,0,0,0,0,0
	c4.4,24.3,8,48.6,10.8,72.9C1374.9,1266.7,1375.7,1302.8,1375.6,1339.6z"/>
<path id="排扣" renderOrder="0" class="st1" d="M223.6,1162.8h140.6c0.3,0,0.6,0.3,0.6,0.6v203.6c0,0.3-0.3,0.6-0.6,0.6H223.6
	c-0.3,0-0.6-0.3-0.6-0.6v-203.6C223,1163,223.3,1162.8,223.6,1162.8z"/>
<path id="文胸_耳仔里L" renderOrder="0" class="st1" d="M917.7,1448h-9.8l-9.8-76.2c0-0.3,0.1-0.7,0.4-0.9c19-15.7,36.2-34.2,48.7-55.7
	c7-12,11.2-27.6,14.5-40.7c3.5-13.8,7-29.2,10.5-46.4c0.1-0.5,0.6-0.8,1.1-0.8l55.6,4.8c0.5,0,0.9,0.5,0.9,1
	c0.3,41,0.4,81.1,0.2,121.7c0,0.3-0.1,0.5-0.3,0.7c-8.8,9-17.6,18.5-26.6,26.7C976.3,1406.7,948.2,1427.3,917.7,1448z"/>
<path id="钢圈套L1" renderOrder="0" class="st1" d="M855.2,1331.4l40.1,0.1c0.3,0,0.5,0.2,0.5,0.5l-0.4,105.5c0,0.3-0.2,0.5-0.5,0.5l-40.1-0.1
	c-0.3,0-0.5-0.2-0.5-0.5l0.4-105.5C854.7,1331.7,854.9,1331.4,855.2,1331.4z"/>
<path id="文胸_上杯中棉L" renderOrder="0" class="st1" d="M850.8,1429.8c-30.5-0.8-61.3-1.4-91.9-1.3c-0.5,0-1-0.4-1-1
	c-0.9-31.7-1.3-63.3-1.4-95c0-0.6,0.4-1,1-1c0,0,0,0,0,0c5.6,0.2,11.2,0.2,16.8,0.3c6.7,0,12.5,0.2,17.3,0.6c19,1.5,38,3.6,57.1,6.4
	c0.5,0.1,0.8,0.5,0.8,0.9c1.7,29.7,2.4,59.4,2.2,89.1C851.8,1429.4,851.3,1429.8,850.8,1429.8
	C850.8,1429.8,850.8,1429.8,850.8,1429.8z"/>
<path id="文胸_上杯心位棉R" renderOrder="0" class="st1" d="M1040.5,1364.1c0.1-0.4,0.4-0.8,0.8-0.9c34.3-6.2,68.6-11.8,103.1-16.9
	c0.5-0.1,1.1,0.3,1.1,0.8c0,0.1,0,0.1,0,0.2c-0.9,30.7-2.3,61.5-4.2,92.1c0,0.5-0.4,0.9-1,0.9l-105.7,3.9c-0.6,0-1-0.4-1-1
	c0,0,0-0.1,0-0.1C1035,1416.8,1037.3,1390.4,1040.5,1364.1z"/>
<path id="肩带L3" renderOrder="0" class="st1" d="M1148.7,1346l39.1-0.1c0.4,0,0.7,0.3,0.7,0.7l0.1,57.2c0,0.4-0.3,0.7-0.7,0.7l-39.1,0.1
	c-0.4,0-0.7-0.3-0.7-0.7l-0.1-57.2C1148,1346.3,1148.3,1346,1148.7,1346z"/>
<path id="文胸_上杯夹棉L" renderOrder="0" class="st1" d="M1357.2,1441.6c-11.3-0.2-25.3,0-41.9,0.5c-43.4,1.4-77.3,2.8-101.8,4.2
	c-2.6,0.1-4.6,0.2-5.9,0.1c-0.6,0-1-0.5-0.9-1.1c0,0,0,0,0-0.1l11.1-81.7c0.1-0.4,0.4-0.8,0.9-0.9c56.2-8.4,112.6-15.5,169.5-16.7
	c7.9-0.2,22.7,0.5,44.4,1.9c0.5,0,0.9,0.5,0.9,1c-0.8,31.6-2.5,63.2-4.9,94.8c0,0.5-0.5,1-1.1,0.9c0,0,0,0,0,0
	C1401.6,1443,1378.2,1441.9,1357.2,1441.6z"/>
</svg>
