<?xml version="1.0" encoding="utf-8"?>
<!-- Generator: Adobe Illustrator 25.0.1, SVG Export Plug-In . SVG Version: 6.00 Build 0)  -->
<svg version="1.1" id="连衣裙" xmlns="http://www.w3.org/2000/svg" xmlns:xlink="http://www.w3.org/1999/xlink" x="0px" y="0px"
	 viewBox="0 0 8192 7771.3" style="enable-background:new 0 0 8192 7771.3;" xml:space="preserve">
<style type="text/css">
	.st0{fill:#C8C8C8;}
	.st1{fill:#C9C9C9;}
</style>
<path id="后片右" class="st0" d="M3829.5,0.1c6.4,2.7,12.7,6.1,19.3,7.9c66.4,18.7,132.9,37,199.2,55.6
	c55.1,15.5,110.2,31.3,165.2,47c42.7,12.2,85.4,24.4,128.1,36.7c7.8,2.3,15.6,5,23.1,7.9c6,2.4,10.6,10.6,9.5,17.3
	c-2.2,13.9-4.8,27.6-7.2,41.4c-7.8,43.7-17.1,87.2-22.8,131.2c-4.1,31.2-10.2,62.3-10.2,94c0.1,3.5-0.2,7-0.9,10.5
	c-6,28.9-5.5,58.1-5.6,87.3c-0.2,53.8-0.2,107.5,0,161.3c0.1,19.9,1.6,39.7,4.5,59.3c3.4,23.1,5.3,46.4,9.4,69.4
	c8.6,48.6,22.4,95.6,42.5,140.6c22.8,51,56.1,94.3,98.7,130.3c13.3,11.5,27.7,21.5,43.1,29.9c22.3,11.9,31,30.6,32.5,54.2
	c0.5,8.2,0.5,16.4,1.1,24.5c0.9,11.6,2.1,23.3,3.3,34.9c0.5,4.6,2.1,9.2,2.1,13.8c-0.1,34,7,67.4,8.5,101.2
	c0.2,5.8,0.5,11.7,1.2,17.5c3.7,30.1,7.8,60.2,11.3,90.4c3.3,27.8,5.8,55.8,9,83.6c2.3,19.7,4.9,39.4,7.8,59.1
	c15.6,107.6,33.6,214.7,56.9,320.9c18.3,83.3,39.2,166,62.7,248.1c33.1,115.8,66,231.5,100.2,347c21.6,72.9,41.1,146.3,59.8,219.9
	c9.5,37.4,20.2,74.5,29,112c30,127.4,58.8,255.1,83.3,383.7c12.7,66.6,26.1,133,38.2,199.7c13.7,75.9,26.2,152,39.1,228
	c4.7,27.6,9.4,55.3,13.7,83c7.2,46.2,14.2,92.4,21.1,138.6c9.8,67.1,19.4,134.1,28.8,201.2c6.3,43.9,12.8,87.8,18.5,131.8
	c6,46.3,10.8,92.8,16.6,139.1c5.3,41.7,11.2,83.3,16.8,125c0.5,3.5,1.4,6.9,1.6,10.4c2.3,43.2,9.4,85.9,14.2,128.8
	c4.7,41.8,8.9,83.6,14,125.3c3.7,30.1,5.7,60.5,9,90.6c3.6,33.7,8,67.2,11.5,100.9c3.4,32.5,6.1,65.1,9.2,97.6
	c0.8,8.1,1.9,16.2,2.8,24.4c1.3,11.6,2.5,23.2,3.7,34.8c1.5,13.9,3,27.9,4.5,41.8c0.2,2.3,0.9,4.6,1,6.9c1,31.6,5.4,62.8,8.2,94.2
	c1.5,16.3,2.2,32.6,5.1,48.8c1.8,10.3,1.6,21,2.4,31.4c1.1,12.8,2.4,25.6,3.6,38.4c0.9,9.3,2.1,18.6,3.1,27.9
	c1.7,16.3,3.3,32.5,5,48.8c0.2,2.3,0.9,4.6,0.9,7c-0.3,35.2,7.5,69.7,8.7,104.7c0.3,9.3,1.9,18.6,3,27.9c0.5,4.6,2,9.2,2.1,13.9
	c1.2,32.7,4.4,65.2,8,97.7c1.9,17.4,3.2,34.8,5.2,52.3c2.6,23.2,2.8,46.6,3.8,69.9c0.2,3.6-4.9,9.7-8.5,10.2
	c-8.1,1-16.2,2.4-24.3,2.4c-38.6,0.3-77.1,0.3-115.7,0.4c-80.7,0.1-161.3,0.2-242,0.2c-19.9,0-39.6,0.7-59.4,3.6
	c-14.9,2.2-30.3,2-45.5,2.1c-153.1,0.2-306.2,0.3-459.4,0.3c-164.8,0.2-329.6,0.5-494.4,0.9c-25.7,0.1-51.4-0.1-76.9,4.1
	c-12.6,2.1-25.6,1.6-38.5,1.8c-71.3,0.5-142.6,0.8-213.9,1.1c-19.9,0.1-39.7,0.7-59.4,3.8c-12.6,2-25.6,2.1-38.4,2.3
	c-39.7,0.5-79.5,0.4-119.2,1.1c-16.3,0.3-32.6,2.2-48.9,3.3c-12.8,0.9-25.6,2.5-38.4,2.6c-80.7,0.6-161.3,0.9-241.9,1.1
	c-10.5-0.1-21-0.7-31.4-1.9c-6.4-0.6-12.9-7.8-13.3-14.5c-0.4-6.9-0.9-14.1,0.3-20.9c3.4-18.5,3.7-37.2,3.8-55.9
	c0.2-31.6,0.5-63.2,0.6-94.7c0.1-22.2,0.6-44.3,4.2-66.4c1.9-11.4,1.8-23.3,1.9-35c0.5-40.9,0.5-81.8,1-122.7
	c0.1-11.7-0.1-23.5,1.8-35c4-23.2,4.3-46.5,4.4-69.9c0.2-29.2,0.5-58.4,0.6-87.7c0.1-21.1,0.6-42,4.1-62.9c2-11.4,1.9-23.3,2.1-34.9
	c0.5-33.9,0.6-67.8,0.8-101.7c0.2-25.7,0-51.4,4.6-76.9c1.9-10.2,1.4-21,1.5-31.5c0.4-37.4,0.6-74.8,1.1-112.2
	c0.2-11.7,0.1-23.5,2.1-35c3.5-20.9,4-41.8,4.1-62.9c0.1-28.1,0.4-56.1,0.6-84.2c0.2-24.6,0.1-49,4.4-73.4c2-11.4,1.6-23.3,1.8-35
	c0.5-38.6,0.6-77.1,1-115.7c0.1-10.5-0.3-21.2,1.5-31.5c4.9-26.7,4.4-53.5,4.7-80.4c0.3-28.1,0.5-56.1,0.6-84.1
	c0.1-18.7,1-37.3,3.9-55.9c2-12.6,2.1-25.6,2.3-38.4c0.5-38.6,0.4-77.2,1.1-115.7c0.3-15.1,2.2-30.3,3.2-45.4c1-14,2.5-28,2.6-41.9
	c0.6-43.2,0.6-86.5,1.1-129.8c0.1-11.7-0.1-23.5,1.8-35c4-23.2,4.2-46.5,4.3-69.9c0.2-49.1,0.4-98.2,0.9-147.3
	c0.1-12.8,0.2-25.8,2.2-38.4c3-19.8,3.7-39.5,3.8-59.4c0.3-104,0.6-208,1-312.1c0.1-17.6,0.5-35,3.4-52.4
	c1.6-10.4,2.3-20.9,2.2-31.4c0.2-58.4,0.2-116.9,0.1-175.3c0-9.3-0.2-18.8-1.9-27.9c-3.6-19.7-3.7-39.5-3.8-59.4
	c-0.3-83-0.6-166-1-249c-0.1-17.6-0.7-35-3.5-52.4c-1.9-11.5-2.2-23.3-2.5-34.9c-0.5-22.2-0.5-44.4-0.7-66.6
	c-0.2-24.6-0.8-49-4.5-73.4c-2.6-17.2-1.8-35-2.2-52.5c-0.5-24.6-0.9-49-4.9-73.4c-2.4-14.9-1.9-30.3-2.3-45.5
	c-0.4-18.7-0.4-37.4-4.5-55.8c-0.6-2.3-0.9-4.6-1-6.9c0.3-41-6.8-81.4-8.7-122.3c-0.6-14-2.4-27.9-3.8-41.8
	c-0.5-4.7-1.9-9.2-1.9-13.9c0.2-34-6.7-67.4-8.9-101.2c-1.2-17.4-4.1-34.8-6.4-52.2c-6.2-47.5-10.4-95.2-17.8-142.5
	c-4.2-26.5-7-53.3-10.6-79.9c-2-15-4.6-30-6.8-45c-12.2-83.3-26.6-166.2-42.4-248.8c-16.1-83.8-33.9-167.2-51.3-250.7
	c-11-52.8-28.7-103.4-50.2-153c-20-46.2-42.5-91.1-64.9-136c-31.9-63.8-64-127.4-95.5-191.4c-26.9-54.7-46.9-112.1-60.7-171.5
	c-3.7-16-6.7-32-6.8-48.5c0-5.8-0.3-11.7-0.9-17.5c-5-41.3,0.4-81.6,12.4-121.1c4.1-13.3,10.1-26.1,16-38.8
	c3.9-8.7,11.5-15.2,20.7-17.8c4.5-1.4,8.9-2.9,13.4-4.1c77.6-21.8,155.3-43.6,232.9-65.4c12.3-3.4,25.1-5.8,35.5-14.1h21.1
	c12.5,6.9,22.9,15.8,30.5,28.2c33.1,54.5,84.2,84.2,144,97.6c126.3,28.1,254.5,30.2,383.1,21.5c51.2-3.5,102.6-6,152.8-18.1
	c64.1-15.4,122.4-40.2,155.4-102.9c7-13.4,20.6-18.4,32.1-26.3L3829.5,0.1z"/>
<path id="前片右" class="st0" d="M0,5779.7c8.2-5.8,12.2-13.9,13.2-23.7c2.8-29,5.4-58.1,8.5-87.1c3.6-33.7,7.8-67.2,11.3-100.9
	c3.3-31.4,6.1-62.7,9.2-94.1c1-10.5,2.2-20.9,3.5-31.3c0.6-4.6,1.7-9.2,2.1-13.9c2.9-31.4,5.5-62.8,8.7-94.1
	c3.6-34.8,8-69.6,11.8-104.4c3.3-30.2,6-60.4,9.1-90.6c0.8-8.1,1.9-16.2,2.8-24.4c1.4-12.7,2.7-25.5,3.9-38.3c0.2-2.3,0.1-4.7,0.3-7
	c5.9-51,12.1-102,16.1-153.2c1.2-15.1,3.2-30.2,4.9-45.2c3.8-33.6,7.6-67.3,11.3-100.9c1-9.3,1.5-18.6,2.4-27.9
	c1.2-12.8,2.6-25.5,4-38.3c0.4-3.5,1.6-6.9,1.6-10.4c0.2-31.6,6.7-62.7,8.9-94.1c1.5-22.1,4.5-44.1,7-66.2
	c3.7-33.6,7.8-67.2,11.4-100.9c3.4-32.5,6.3-65.1,9.4-97.6c0.6-5.8,0.8-11.7,1.5-17.5c5.4-40.5,9.8-81.1,13.1-121.9
	c2.7-33.7,7.6-67.2,11.2-100.9c3.3-31.3,6.2-62.7,9.2-94.1c0.7-7,1-14,1.8-20.9c4.1-38.3,8.3-76.6,12.6-114.9
	c3.8-33.6,8-67.2,11.5-100.9c3.4-32.5,6.1-65.1,9.3-97.6c2.8-27.9,6-55.7,8.9-83.6c1.6-15.1,3.2-30.2,4.8-45.2
	c1-9.3,1.9-18.6,2.9-27.9c1.3-11.6,2.6-23.2,4-34.8c1.8-15.1,4.2-30.1,5.6-45.2c3.2-33.7,5.9-67.4,9-101.1c0.7-8.1,2-16.2,2.9-24.3
	c1.3-11.6,2.4-23.2,3.6-34.8c1.3-12.8,2.6-25.5,4-38.3c0.9-8.1,1.9-16.2,2.8-24.4c1.6-13.9,3.1-27.8,4.6-41.8
	c0.9-8.1,1.6-16.3,2.4-24.4c1.5-15.1,3.1-30.2,4.6-45.3c0.7-7,2-13.9,2.3-20.9c1.3-35.1,7.5-69.6,11.5-104.4
	c0.4-3.5,1.5-6.9,1.5-10.4c0.2-32.8,6.1-65.1,8.8-97.7c1.8-22.1,4.6-44.1,7-66.2c3.7-33.6,7.6-67.3,11.2-100.9
	c3.4-32.5,6.5-65,9.6-97.6c0.6-5.8,0.6-11.7,1.4-17.5c5.5-41.7,10.1-83.4,13.4-125.3c2.7-33.7,7.8-67.2,11.4-100.9
	c3.4-32.5,6.1-65.1,9.2-97.6c2.2-22.1,4.6-44.1,7-66.2c3.8-33.6,7.8-67.2,11.5-100.9c3.3-30.2,6.1-60.4,9.2-90.6
	c0.8-8.1,1.7-16.3,2.8-24.4c0.9-7,3-13.9,3-20.8c-0.3-34,6.6-67.4,9.1-101.2s7.4-67.3,11.3-100.9c0.4-3.5,1-7,1.1-10.4
	c1.4-38.6,7.7-76.7,12.5-114.9c1.2-9.3,1.4-18.6,2.2-27.9c0.9-10.5,2-20.9,3.1-31.4c1.3-12.8,2.6-25.6,4-38.3
	c1-10.4,1.9-20.9,3-31.4c1.3-12.8,2.6-25.5,4.2-38.3c1.7-13.9,4-27.7,5.4-41.7c3.1-31.4,5.5-62.8,8.8-94.2
	c3.6-34.8,7.9-69.6,11.7-104.4c1.1-10.4,1.3-21,2.3-31.4c0.8-8.1,1.5-16.3,3.3-24.2c2.3-9.9,8.7-16.5,19.1-18.1
	c6.9-1,14-0.8,20.9-2.1c14.9-2.7,30.2-4.7,44.5-9.4c33-11,60.2-30.7,80.2-59.6c21.4-31,38.3-64.3,47.8-100.9c8-30.5,15-61.3,16-93.1
	c0-2.3,0.2-4.7,0.5-7c7.5-37,5.9-74.5,6.2-111.8c0.3-35.1,0-70.1-0.1-105.2c-0.1-22.2-0.2-44.4-4.9-66.3c-1-4.6-1.5-9.2-1.5-13.9
	c-0.2-25.8-3.9-51.2-6.9-76.7c-5.1-42.9-11.3-85.7-18.6-128.3c-6.8-39.2-13.9-78.3-20.8-117.4c-0.9-4.6-1.2-9.2-1.1-13.9
	c0.1-4.8,2.7-9.2,6.8-11.6c5-2.9,10.3-5.5,15.7-7.5c42.9-15.7,83.5-36,123.6-58c50.1-27.6,100.8-54.3,154.2-75.4
	c24.1-9.6,49.1-15.4,74.3-20.4c33.4-6.6,65.1,1.6,95.5,14.7c13.7,5.9,22.2,17,23.9,32.2c6.9,60.7,23.4,119.1,42.5,176.9
	c12.4,37.9,27.4,74.6,46.3,109.7c25.1,46.4,53.3,90.6,91.7,127.5c20.2,19.5,39.8,39.4,62.6,56c45.9,33.5,95.9,58.3,150.9,71.9
	c27.1,6.7,54.8,11.8,83.1,11.6c22.2-0.1,44.4,0.2,66.6,0c63.2-0.6,122.6-16.5,178.3-45.5c40.6-21.1,77.9-47,110.1-80
	c23.7-24.3,47.8-48,67.2-76.1c22-31.7,41.1-65.3,57.1-100.3c34.7-76,57.2-155.5,69.8-238.1c1.2-8,4.3-15.7,6.8-23.4
	c1.2-3.7,7.6-7.6,11.3-7c8.1,1.2,16.3,2.1,24.1,4.3c61.8,17.5,123.6,35.3,185.3,53.2c4.4,1.3,9,3,12.6,5.7c2.4,1.8,4.7,5.8,4.6,8.8
	c-0.1,5.8-1.2,11.5-3.1,17c-6.2,17.6-13.2,35-19.4,52.6c-23.6,66-47.2,132-70.6,198.1c-8.6,24.2-18.1,48.2-25.9,72.6
	c-18.1,56.8-35.4,113.8-53.2,170.7c-20.9,67-39,134.7-55.4,202.9c-18.6,77.3-35.6,154.9-47.3,233.5c-5.5,37-13,73.7-16.9,110.8
	c-3.8,36-10.4,71.7-10.3,108c0,7,0,14.2-1.4,21c-6,28.9-5.2,58.1-5.6,87.3c-0.3,22.2-0.3,44.4-4.4,66.4c-1.5,8-1.7,16.3-1.7,24.4
	c-0.1,64.3-0.1,128.6,0,192.8c0,9.3,0.3,18.8,2,27.9c3.6,19.7,3.9,39.5,4,59.4c0.1,22.2,0.5,44.4,0.6,66.6c0.2,17.5,1.4,35,3.6,52.4
	c2.3,18.5,2.6,37.3,3.1,55.9c0.6,19.9,0.3,39.8,4.7,59.3c0.6,2.3,0.9,4.6,0.9,7c-0.7,44.5,7.3,88.4,8.6,132.8
	c0.1,3.5-0.2,7,0.3,10.5c5.9,40.5,5.1,81.6,11.1,122c0.2,1.2,0.4,2.3,0.5,3.5c0.8,38.6,6.6,76.8,9,115.2c0.1,2.3-0.1,4.7,0.2,7
	c4.8,41.7,5.7,83.8,11.1,125.5c0.4,3.5,1.3,6.9,1.4,10.4c0.9,31.6,4.4,62.9,7.5,94.3c2.2,22,2.3,44.3,6.3,66.2
	c1.4,8,1.3,16.3,1.4,24.5c0.3,17.5,1.1,35.1,4.8,52.3c0.6,2.3,0.9,4.6,0.9,6.9c-0.4,38.7,6.4,76.8,9,115.2
	c2.4,36.1,5.6,72.2,8.9,108.2c1.9,20.9,3.4,41.9,5,62.8c3.1,39.6,6,79.1,9.1,118.7c1.7,20.9,4.4,41.8,4.8,62.8
	c0.1,7,0.2,14.1,1.6,20.9c4.6,23.1,5,46.4,5.3,69.8c0.1,16.4,1.4,32.7,3.8,48.9c2.1,13.8,2.5,27.9,3,41.9
	c0.6,19.9,1.4,39.6,4.5,59.4c2.4,14.9,2.1,30.3,2.6,45.4c0.6,19.9,1.3,39.6,4.4,59.4c2.3,14.9,2.2,30.3,2.6,45.4
	c0.6,23.4,1.1,46.6,4.8,69.9c2.4,14.9,1.9,30.3,2.2,45.5c0.5,22.2,1.1,44.3,4.7,66.4c2.2,13.7,1.9,27.9,2.2,42
	c0.6,26.9,0.5,53.7,5.2,80.4c2.2,12.5,1.6,25.6,1.9,38.5c0.7,32.7,0.4,65.3,5.5,97.9c2.9,18.3,1.5,37.3,1.8,56
	c0.4,26.9,0.4,53.7,4.8,80.4c2.4,14.9,1.6,30.3,1.9,45.5c0.8,32.7-0.6,65.4,5.6,97.9c1.8,9.1,1.1,18.6,1.3,28
	c0.4,25.7,0.4,51.4,0.9,77.1c0.2,11.7,0.2,23.5,2.1,34.9c3.6,20.9,4,41.8,4.1,62.9c0.1,23.4,0.1,46.8,0.7,70.1
	c0.3,12.8,0.6,25.8,2.6,38.4c2.7,17.4,3.5,34.9,3.6,52.4c0.1,26.9,0.4,53.8,0.6,80.6c0.1,23.4,0.4,46.7,4.4,69.9
	c2,11.4,1.7,23.3,1.8,35c0.5,43.2,0.4,86.5,1.1,129.7c0.2,15.1,2.2,30.3,3.2,45.4c1,14,2.4,27.9,2.6,41.9c0.6,47.9,0.7,95.8,1,143.8
	c0.1,18.7,0.9,37.3,3.7,55.9c2.1,13.8,2.3,27.9,2.4,41.9c0.5,59.6,0.7,119.2,1,178.8c0.1,17.5,0.6,35,3.6,52.4
	c1.5,9.2,2.2,18.6,2.2,27.9c0.5,58.4,0.8,116.9,0.9,175.3c0,5.8-0.3,11.7-0.9,17.5c-1,10.3-7.8,17.9-17.7,18.8
	c-33.7,2.9-67.4,5.6-101.2,8.1c-11.6,0.8-23.4-0.4-35,0.8c-39.5,4-79,7.4-118.8,7.8c-31.2,6.4-62.8,5.4-94.3,5.8
	c-19.9,0.3-39.7,0.8-59.4,4.2c-11.4,2-23.3,2.2-34.9,2.2c-151.9,0.1-303.9,0.1-455.8,0c-10.5,0-21.2,0.3-31.5-1.6
	c-26.7-4.9-53.5-4.6-80.4-4.9c-28.1-0.3-56-0.6-83.9-5.1c-16-2.6-32.6-1.6-49-2c-22.2-0.4-44.3-1-66.3-4.7
	c-13.7-2.3-27.9-2-41.9-2.3c-17.5-0.3-35-1.7-52.4-4.1c-14.9-2.2-30.2-2.5-45.4-3c-17.5-0.6-34.9-1.3-52.3-4
	c-13.8-2.1-27.9-2-41.9-3.1c-16.3-1.2-32.6-2.7-48.8-4.1c-2.3-0.2-4.6-1-6.9-1c-42.1-0.1-83.7-7.1-125.7-8.9
	c-16.3-0.7-32.6-2.5-48.8-3.9c-3.5-0.3-6.9-1.5-10.4-1.5c-44.5,0.5-88.3-8.2-132.8-8.8c-15.1-0.2-30.2-2.3-45.3-3.6
	c-3.5-0.3-6.9-1.6-10.4-1.5c-43.3,0.4-86-9.1-129.2-8.6c-17.5,0.1-35.1-1.2-52.4-4.1c-12.6-2-25.6-2.3-38.4-2.7
	c-21-0.6-42.1-0.5-62.8-5c-1.1-0.3-2.3-0.4-3.5-0.5c-59.5-1-118.6-12.1-178.3-8.8L0,5779.7z"/>
<path id="前片左" class="st0" d="M5709.1,0.1c8.9,6.2,19.4,7.9,29.5,10.8c68.6,19.5,137,39.3,205.8,58.3
	c28.7,7.9,31.7,15.9,26.7,42.3c-9.4,50.5-18.2,101.2-26.3,152c-6.3,39.2-11.5,78.6-17,117.9c-0.8,7-1.2,14-1.1,21
	c-0.2,21.1-1.4,42-5,62.8c-2,11.4-2,23.3-2.1,35c-0.2,44.4-0.3,88.8-0.2,133.2c0.1,26.9,1.3,53.6,5.1,80.4
	c3.4,24.2,4.6,48.8,9.8,72.9c4.9,22.8,11.1,45.3,18.6,67.5c14.3,42.2,39.5,76.9,73.7,104.6c23,18.6,49.5,30.9,80.3,30.7
	c9.3,0,18.7,0.6,27.9,1.8c8.9,1.1,15,6.8,17.5,15.2c2.4,7.8,4.1,15.8,4.9,23.9c3.2,33.8,8.5,67.2,14.3,100.6s10.9,66.9,17.5,100.1
	c8,40.1,16.7,80.1,26.2,119.9c23.7,100.1,50.9,199.3,80.1,297.9c24.2,81.8,48.9,163.4,75.9,244.4c29.6,88.7,58.2,177.7,86.7,266.8
	c27,84.6,53.8,169.3,79.8,254.2c16.7,54.8,32.3,109.9,47.5,165.1c13.6,49.6,26.6,99.3,38.9,149.3c20.1,81.7,37.9,164.1,50.5,247.2
	c6.8,45,15.4,89.9,17.3,135.5c5.9,27.6,6.1,55.7,6.7,83.7c-0.1,3.5,0.2,7,0.8,10.5c6.5,32.4,5.1,65.2,5.2,97.9
	c0,19.9,1.1,39.9-0.7,59.6c-2.9,31.4-4,63-7.6,94.2c-7.1,61.5-17.1,122.6-33.1,182.6c-12.6,47.5-26.8,94.6-46.6,139.5
	c-23.5,53.4-48.4,106.5-81.6,154.9c-17.9,26-35.2,52.4-54.4,77.4c-28.6,37.3-61.9,69.8-102.3,94.8c-17,10.6-35.2,18.4-53.6,25.7
	c-34.9,13.9-70.6,23.9-108.1,28.6c-25.5,3.2-50.9,6.2-76.7,6.5c-11.6,0.1-23.3,1.8-34.8,3.4c-12.8,1.8-25.7,2.7-38.4,0.3
	c-23.1-4.5-46.5-4-69.9-4.3c-24.6-0.4-49-0.2-73.3-5.1c-9.1-1.8-18.6-1.3-27.9-2.1c-14-1.2-27.9-2.6-41.8-4l-31.4-3
	c-12.8-1.3-25.5-2.5-38.3-3.8c-2.3-0.2-4.6-1-6.9-1.1c-40.7-3-81.4-7-122.2-8.6c-39.7-1.5-79.5-0.6-119.2-0.5
	c-19.9,0-39.8-0.1-59.4,3.4c-3.4,0.6-7,0-10.4-0.2c-4.9-0.3-11.6-5.6-12.6-10.8c-1.4-6.8-3-13.7-3.2-20.6
	c-0.7-19.9-1.5-39.7-5.5-59.3c-0.9-4.6-1.3-9.3-1.3-13.9c-0.3-25.8-1.8-51.4-6.5-76.7c0.9-41-7.3-81.4-8.9-122.3
	c-1.5-39.6-6.9-79-10.6-118.5c-0.2-2.3-1-4.6-1-6.9c0-42.1-7-83.8-8.8-125.8c-0.7-16.3-2.9-32.5-4.1-48.8c-1.1-14-1.8-28-2.8-41.9
	c-1.3-16.3-2.8-32.6-4.2-48.8c-0.7-8.1-2-16.2-2.2-24.4c-0.8-25.7-0.9-51.4-6-76.8c-1.6-7.9-1.2-16.3-1.3-24.5
	c-0.3-23.4-1.2-46.6-5-69.8c-2.3-13.7-1.8-28-2.1-42c-0.5-19.9-1.2-39.6-4.3-59.4c-2.4-14.9-2.3-30.3-2.7-45.4
	c-0.6-23.4-0.8-46.7-4.8-69.9c-2.2-12.6-1.9-25.6-2.2-38.4c-0.7-28-0.9-56-5.1-83.9c-2.8-18.3-1.8-37.3-2.1-56
	c-0.4-22.2-0.6-44.3-4.6-66.4c-1.9-10.3-1.8-20.9-1.9-31.4c-0.4-22.2-0.6-44.4-0.7-66.6c0.1-17.5-1.2-35-3.7-52.4
	c-2-12.6-2.3-25.6-2.5-38.4c-0.5-28.1-0.6-56.1-0.8-84.2c-0.3-26.9-0.2-53.7-4.6-80.4c-2.2-13.7-1.6-28-1.7-42
	c-0.4-94.7-0.8-189.3-1-284c-0.1-21-1.4-42-3.8-62.9c-3.9-33.7-3.8-67.8,0.4-101.4c2.2-17.4,3.2-34.9,3.2-52.4
	c0.3-85.3,0.6-170.7,1-256c0.1-19.9,0.6-39.7,4-59.4c1.9-11.4,1.9-23.3,2.1-35c0.5-23.4,0.6-46.8,0.8-70.1c0.1-18.7,1-37.3,4-55.9
	c2.1-12.6,2-25.6,2.4-38.4c0.8-29.2,0.4-58.4,5.5-87.4c2.4-13.7,1.6-28,1.8-42c0.4-18.7,0.5-37.4,4.5-55.8c0.6-2.3,0.9-4.6,1-6.9
	c0.3-39.8,5.9-79.2,8.7-118.7c0.9-12.8,2.3-25.6,3.7-38.3c0.6-5.8,1.9-11.5,2.4-17.4c5.9-72.2,17.1-143.7,26.7-215.5
	c8.4-62.6,22.6-124.2,32.5-186.5c0.2-1.2,0.5-2.3,0.7-3.4c21.6-91,42.8-182,73-270.7c17-49.8,35.4-99.1,59-146.2
	c15.7-31.3,31.2-62.8,51.4-91.7c17.4-24.9,34.8-49.8,52-74.9c5.3-7.7,9.5-16,14.3-24L5709.1,0.1z"/>
<path id="后片左" class="st0" d="M8192,4138.4l-80.6-0.4c-19.9-0.1-39.6-0.7-59.4-4c-12.6-2.1-25.6-2-38.4-2.2
	c-37.4-0.5-74.8-0.3-112.1-1c-16.3-0.3-32.6-2.3-48.9-3.4c-14-1-27.9-2.3-41.9-2.5c-36.2-0.6-72.4-0.5-108.6-1
	c-11.7-0.1-23.5,0-34.9-2c-22-3.7-44.1-4.1-66.4-4.2c-29.2-0.1-58.4-0.4-87.6-0.6c-18.7-0.1-37.3-0.9-55.9-3.8
	c-12.6-2-25.6-2.2-38.4-2.4c-35-0.5-70.1-0.5-105.1-0.9c-10.5-0.1-21.2,0.7-31.5-1.1c-36-6.4-72.2-4.9-108.4-5.4
	c-11.7-0.1-23.4-0.2-35-0.7c-4.7-0.3-9.3-1.1-13.7-2.5c-6-1.8-9.8-6.4-11.1-12.4c-3-13.9-2.1-28,0.5-41.8
	c3.5-18.5,4.3-37.1,4.5-55.8c0.2-17.5,0.4-35.1,4.2-52.3c0.6-2.3,0.9-4.6,1-6.9c0-42.1,7.1-83.7,8.9-125.7c0.7-16.3,2.6-32.6,4-48.8
	c0.3-3.5,1.5-6.9,1.4-10.4c-0.6-44.5,8.1-88.3,8.8-132.8c0.2-15.1,2.4-30.2,3.7-45.3c0.2-2.3,0.9-4.6,1.1-6.9
	c3-41.9,6.3-83.8,8.8-125.7c1-17.5,1.5-34.9,4.3-52.3c2.2-13.8,1.9-27.9,2.9-41.9c1.2-16.3,2.8-32.5,4.2-48.8c0.2-2.3,1-4.6,1-6.9
	c0-42.1,7.4-83.7,8.7-125.7c0.6-19.9,0.6-39.7,4.9-59.3c0.3-1.1,0.4-2.3,0.5-3.5c0-43.3,7.4-86,9-129.2c0.6-15.1,2.4-30.2,3.8-45.3
	c0.3-3.5,1.5-6.9,1.5-10.4c-0.3-42.1,7.4-83.7,8.5-125.7c0.3-16.3,1.7-32.7,4.1-48.8c2-12.6,2.3-25.6,2.7-38.4
	c0.6-21.1,0.8-42,5-62.8c1.6-7.9,1.8-16.3,1.9-24.4c0.4-23.4,0.9-46.7,5.5-69.8c1.1-5.7,1.2-11.6,1.3-17.4
	c0.5-25.7,1.4-51.4,5.9-76.8c1.6-9.1,1.2-18.6,1.4-28c0.4-18.7,0.9-37.4,4.8-55.8c0.3-1.1,0.5-2.3,0.5-3.5c0-43.3,7.9-86,8.9-129.2
	c0.5-18.7,0.6-37.4,4.5-55.8c0.6-2.3,0.9-4.6,1-6.9c-0.7-43.3,7.9-86,8.6-129.2c0.3-17.6,0.6-35.1,4.3-52.3c0.6-2.3,0.9-4.6,1-6.9
	c-0.4-43.3,8.2-86,8.8-129.2c0.2-17.6,0.8-35,4-52.3c1.6-9.2,2.4-18.5,2.5-27.9c0.5-21,3.7-41.9,5-62.8c2.4-40.8,7-81.4,9-122.2
	c1.1-22.2,0.9-44.4,5.4-66.3c0.3-1.1,0.4-2.3,0.5-3.5c-0.6-42.1,7.4-83.7,8.6-125.7c0.2-8.2-0.1-16.5,1.5-24.4
	c5-25.4,5.1-51.1,5.7-76.8c0.2-7,0-14.2,1.4-21c5.2-25.4,4.2-51.2,5.9-76.8c2.4-36.1,7.3-72,7.8-108.2c0.2-11.3,6.9-19.4,16.5-25.3
	c13.9-8.6,27.8-17.2,41.4-26.3c41.5-28.1,72.7-65.3,96.9-108.8c32.8-58.9,52.9-121.9,62.6-188.5c7.5-50.9,13.7-101.8,13-153.3
	c-0.6-46.7-0.2-93.5-0.8-140.2c-0.2-14-2-27.9-3.2-41.9c-0.5-5.8-2-11.6-2.1-17.4c-1-50.4-9.9-99.9-16.7-149.6
	c-4.7-34.7-12.5-68.9-18.8-103.4c-2.1-11.5-4-23-5.6-34.6c-0.7-7.2,3.1-14.1,9.6-17.3c5.3-2.5,10.7-4.6,16.3-6.3
	c58.5-16.5,117-32.8,175.4-49.4c21.3-6,43.1-10.6,63-20.8h21c18.9,13.9,26.3,34.6,33.9,55.7c79.3,223.4,126.6,454.5,165.5,687.7
	c44.4,266.3,75.3,534.4,99.8,803.2c16.2,177.9,30.5,356,41.8,534.3c14.6,230.5,29.4,460.9,31,692.2c1,147.4,4.1,294.8,7.7,442.1
	c3.1,126.2,0.9,252.3,2.6,378.5c0,117.6,0.1,235.2,0.2,352.8c0,12.5-3.3,25.6,3.3,37.7L8192,4138.4z"/>
<path id="后下裙片" class="st0" d="M6795,5996.5h-560.8c-17.5,0-35-1-52.4-3.2c-16.1-2.1-32.6-2.4-48.9-2.4
	c-130.9-0.2-261.7-0.3-392.6-0.3c-119.2-0.1-238.4-0.2-357.5-0.4c-10.5,0-21.1-0.1-31.5-0.8c-12.8-0.8-19.4-8.6-18.1-20.7
	c1.8-16.2,3.4-32.5,5.5-48.7c2.8-20.8,6.5-41.5,8.9-62.4c4.8-41.8,10.6-83.3,17.1-124.9c4.7-30,8.1-60.1,12.1-90.2
	c2.9-22,5.8-44,8.8-66c6.9-50.9,14.5-101.8,20.5-152.7s13.6-101.8,20.8-152.7c3.8-26.6,6.2-53.3,9.5-80c1.3-10.4,3.4-20.8,4.8-31.2
	c5.3-39.4,10.4-78.7,15.5-118.1c2.5-18.5,5-37,7.5-55.5c10.9-79.8,21.8-159.6,32.7-239.4c5.6-41.6,10.7-83.3,16.3-125
	c8.5-63.6,17.3-127.2,25.9-190.9c3.2-24.3,5.8-48.7,9.2-73c1.9-13.9,4.6-27.6,7.6-41.3c2.2-10.2,9.2-15.7,19.9-16.6
	c7-0.6,14-0.9,21-0.9c98.1,0.3,196.3,0.8,294.4,1.2c9.3,0,18.8,0.1,27.9,1.8c22,4.1,44.2,4,66.4,4.1c85.3,0.3,170.6,0.7,255.9,1
	c18.7-0.1,37.4,1.1,55.9,3.6c15,2.1,30.3,2.2,45.4,2.3c85.3,0.5,170.6,0.9,255.9,1.1c18.7-0.1,37.4,1.1,55.9,3.6
	c14.9,2.1,30.3,2.2,45.4,2.3c85.3,0.5,170.6,0.9,255.9,1.1c18.7,0.1,37.3,0.8,55.9,3.5c14.9,2.1,30.3,2.3,45.4,2.4
	c84.1,0.6,168.3,0.9,252.4,1.1c21,0.1,42,0.4,62.9,4c10.3,1.8,21,1.4,31.4,2c4.7,0.2,9.4,0.3,14,0.7c16,1.4,22.5,8,23.5,24.6
	c0.6,10.5,0.7,21.1,0.6,31.6c-0.2,294.5-0.5,588.9-0.7,883.4c0.2,17.5-0.9,35-3.2,52.4c-2,13.8-2.5,27.9-2.6,41.9
	c-0.5,58.4-0.8,116.9-1,175.3c-0.1,19.9-0.8,39.6-3.9,59.4c-2,12.6-2,25.6-2.2,38.4c-0.5,39.7-0.4,79.5-1.1,119.2
	c-0.3,16.3-2.2,32.6-3.3,48.9c-1,14-2.4,27.9-2.6,41.9c-0.6,30.4-0.5,60.8-1,91.1c-0.1,10.5-0.8,21-2.2,31.4
	c-1.8,13.2-10.4,21.1-23.4,21.9c-12.8,0.8-25.7,0.9-38.5,0.9c-187,0-373.9,0-560.9,0L6795,5996.5z"/>
<path id="前下裙片" class="st0" d="M7118.3,7765.3c-59.6,0-119.2,0-178.8,0.1c-11.7,0-23.6-0.4-35,1.6
	c-24.4,4.2-48.9,4.1-73.4,4.1c-303.9,0.1-607.7,0.2-911.6,0.3c-24.6,0-49,0-73.4-4.5c-10.2-1.9-21-1.6-31.5-1.8
	c-22.2-0.4-44.4-0.5-66.6-0.6c-19.9-0.1-39.6-0.9-59.4-4.1c-13.8-2.2-27.9-2.2-41.9-2.6c-18.7-0.5-37.4-0.5-55.8-4.6
	c-2.3-0.6-4.6-0.9-6.9-1c-35.1,0.1-69.7-7.1-104.7-8.8c-9.3-0.4-18.6-1.9-27.9-2.9c-12.8-1.3-25.5-3.4-38.3-3.8
	c-22.3-0.7-44-5.9-66-8.7c-8.5-1.1-14.6-8-15.5-16.7c-0.9-8.1-1.3-16.3-1.4-24.5c0.2-119.2,0.5-238.4,0.8-357.6
	c0-8.2-0.1-16.5,1.4-24.5c4.4-23.2,4.2-46.5,4.3-69.9c0.3-142.6,0.7-285.2,1.2-427.8c0.1-19.9,0.7-39.6,3.8-59.4
	c2.1-13.8,1.9-28,2-42c0.5-119.2,0.9-238.4,1.1-357.6c0.1-24.6-0.2-49,4.2-73.4c1.9-10.2,1.5-21,1.6-31.5
	c0.3-29.2,0.3-58.4,0.4-87.6c0-7,0-14,0.4-21.1c1-16.7,5.4-22.5,22.8-25.8c25.2-4.9,50.6-8.8,76-12.8c28.9-4.5,57.8-8.7,86.6-12.9
	c5.8-0.9,11.6-1.1,17.4-1.6c16.2-1.6,32.5-3.3,48.8-5c7-0.7,13.9-1.8,20.9-1.9c19.8-0.5,39.6-2.2,59.3-5.1c16.1-2.3,32.6-2,49-2.3
	c23.4-0.5,46.7-0.7,69.9-4.7c11.4-2,23.3-1.9,35-1.9c143.8-0.1,287.5-0.1,431.2,0.1c11.7,0,23.5-0.1,35,1.9
	c23.2,4,46.5,4.2,69.9,4.3c25.7,0.1,51.4,0.5,77.1,0.6c22.2,0.1,44.3,0.5,66.4,4.2c11.4,2,23.3,1.9,34.9,2.1
	c25.7,0.5,51.4,0.6,77.1,0.8c21.1,0.1,42,0.8,62.9,4.2c12.6,2,25.6,2,38.4,2.1c56.1,0.5,112.2,0.5,168.3,1.2
	c16.3,0.2,32.6,2.2,48.9,3.3c12.8,0.9,25.6,2,38.5,2.1c36.2,0.3,72.5,0.1,108.7,0.3c10.5,0,21,0.2,31.5,0.9s17.8,7.2,19.4,17.1
	c2.7,16.1,6.2,32.2,7.2,48.5c1.4,23.4,5.3,46.4,8.2,69.6c6.5,52.1,14,104.1,19.4,156.4c5,48.8,13.3,97.2,16.9,146.1
	c1.9,25.6,6.6,50.9,9.9,76.4c3.1,23.1,6.8,46.2,8.9,69.5c4.3,47.7,13.4,94.8,16.3,142.7c0.7,11.6,3.8,23,5.2,34.6
	c6.9,54.4,13.7,108.9,20.3,163.4c5.6,46.4,10.5,92.8,16.3,139.2s12.7,92.5,18.1,138.9c2.8,24.3,4.9,48.8,8.4,73.1
	c4.8,33.5,8.8,67.1,12.7,100.8c3.4,29,6.2,58,9.5,87c2.3,19.7,4.6,39.5,7.6,59.1c6.5,42.7,10.1,85.8,15.3,128.7
	c0.3,3.5,0.5,7,0.4,10.5c0.1,5.1-5.3,11.3-10.7,12.3c-3.4,0.8-6.9,1.3-10.3,1.6c-8.2,0.3-16.4,0.5-24.6,0.5c-60.8,0-121.5,0-182.3,0
	V7765.3z"/>
<path id="左袖" class="st1" d="M3150.6,5857.5c12.8,0,25.7-0.1,38.5,0.1c5.8,0.2,11.6,0.7,17.4,1.6c9.8,1.4,17.2,9.5,17.5,19
	c0.1,5.8-0.1,11.6-0.8,17.4c-0.8,8.1-2.9,16.2-3,24.3c-0.4,33.9-3.7,67.5-7,101.2c-3.9,39.7-11.7,78.5-21.3,117
	c-7,28.3-15.8,56.2-23.8,84.3c-1.9,6.7-4,13.5-6.5,20c-21.6,56.8-39,115-54.7,173.6c-5.1,19.1-8.5,38.7-12.1,58.2
	c-9.2,50.6-16.7,101.3-16.4,153c-0.1,11.7-1,23.3-2.8,34.9c-4.1,28.9-4.1,58.3,0.1,87.3c1.7,12.7,2.6,25.5,2.8,38.4
	c0.6,25.7,0.8,51.3,5.8,76.8c3.6,18.3,4.6,37,7.5,55.5c9.8,62.5,26.8,123.1,47.7,182.8c8.9,25.3,16.6,51.1,24.7,76.7
	c3.9,12.3,7.4,24.6,11.6,36.8c19,54.3,28.6,110.6,36.9,167.4c4.8,32.3,7.3,65,7.4,97.7c0,10.4,1.9,20.9,2.9,31.3
	c0.6,5.8,1.4,11.6,1.5,17.4c0.3,11.6-7.1,20.6-18.1,22.2c-4.6,0.8-9.2,1.3-13.9,1.4c-28,0.1-56.1,0.1-84.1,0.1c-2.3,0-4.7-0.2-7-0.4
	c-12.9-1.1-19.5-6.3-22.3-18.4c-2.4-10.2-4.8-20.5-6.1-30.9c-6.4-50.7-30.6-92.3-64.5-129.4c-32.7-35.9-72.6-62.2-113.6-87
	c-23.9-14.5-49-27.1-73.4-40.9c-44.7-25.3-90.7-48.3-132.5-78.5c-27.5-19.8-54.5-40.2-77.9-64.9c-64.7-68.2-110.5-147-134.4-238.4
	c-10.4-39.8-16.5-80.1-20.2-120.7c-3-32.5-1.8-65.1,2.2-97.9c4.2-34.8,10.6-69.2,19.1-103.2c12.2-49.2,33.3-94.7,58.7-138.2
	c18.3-31.4,41.1-59.6,65.1-86.7c24.9-28.1,54.4-51.2,84.9-72.9c41.9-29.8,86.8-55,132.2-79c38.2-20.2,76.2-40.8,112-65.1
	c29.1-19.7,56.4-41.4,80.6-67.1c24.5-26,41.9-56,53.7-89.4c3.5-9.8,5.1-20.3,7.2-30.6c2.6-12.6,4.3-25.3,7.1-37.9
	c2.6-11.9,9.4-17.6,22.5-18c16.3-0.6,32.7-0.1,49-0.1L3150.6,5857.5z"/>
<path id="右袖" class="st0" d="M7505.2,6850.2c0-18.7-0.4-37.4,0.1-56.1c1.6-74.1-9.8-146.7-26.1-218.6
	c-9.7-43.3-21.7-86.1-36.1-128.1c-14.2-40.8-27.8-81.9-40.8-123.1c-15.6-49.1-25-99.5-31.5-150.7c-4-30.1-6.4-60.4-7.2-90.7
	c-0.2-10.4-2.6-20.8-3.9-31.2s-2.2-20.9,0-31.4c1.4-6.7,7.4-13.2,13.7-14.4c3.5-0.6,6.9-1.4,10.4-1.4c32.7,0,65.4,0.1,98.1,0.4
	c3.4,0,6.9,1.2,10.2,2.1c4.8,1.4,8,4.9,9.9,9.2c1.3,3.2,2.2,6.6,2.8,10.1c2.2,11.5,4.3,23,6.4,34.5c8.6,47.5,30.9,87.7,64.1,122.3
	c12.9,13.5,26.9,25.9,41.9,37.1c37.5,27.9,77,53.1,118.1,75.2c51.5,27.5,103.4,54.4,151.6,87.6c39.6,27.3,76.4,58,107.5,94.8
	c58.3,69,98.6,147.3,117.3,236c10.1,48.1,16.6,96.6,16.9,145.9c0.2,28.3-5.5,55.8-8.8,83.5c-5.9,50.2-19.9,98.3-39.9,144.8
	c-9.2,21.5-19.2,42.6-32.3,62.1c-7.8,11.7-15.5,23.4-23.2,35.1c-9.6,14.7-20.7,28.3-33.2,40.6c-9.1,9.1-18.2,18.2-27.1,27.5
	c-38.4,40-83.2,71.5-131.4,98.3c-43.9,24.5-88,48.4-131.7,73.2c-41.8,23.7-82.3,49.9-116.6,83.3c-38.1,37.1-67.3,80.6-73.8,135.9
	c-1.5,12.7-4.8,25.2-8.1,37.6c-1.5,5.9-6.5,9.6-12.5,11.2c-3.4,1-6.8,1.5-10.3,1.6c-31.6,0.2-63.1,0.6-94.6,0.1
	c-20.2-0.3-29-8.9-26.2-28.3c4.8-33.7,3.7-67.6,6.9-101.3c6.9-73.3,21.9-145.7,44.9-215.7c13.8-42.2,27.8-84.3,42-126.4
	c23.3-68.9,37-139.7,46.5-211.8C7506.2,6957.5,7503.8,6903.9,7505.2,6850.2z"/>
<path id="领圈" class="st0" d="M3800.5,6501.6c-7.9,0-9.1,0.1-10.2,0c-58.1-5.4-116.4-9.2-171.7-30.7
	c-28.3-10.9-55.7-24.2-81.8-39.7c-79.1-47.3-138.5-113.5-185.8-191.7c-39.6-65.5-67.3-135.9-86.6-209.7c-8.3-31.6-15-63.6-22-95.6
	c-2.2-10.3-3.7-20.7-4.5-31.2c-0.6-6,2.5-11.4,7.4-15.1c3.7-2.9,7.7-5.3,11.9-7.2c11.9-5,24.2-8.6,37.2-9.5
	c5.8-0.4,11.7-0.4,17.5-1.1c36.3-4.3,37-4.1,45.4,34.8c5.9,27.4,13,54.5,20.4,81.5c10.8,39.6,25.8,77.5,43.9,114.2
	c5.2,10.5,10.6,20.8,15.6,31.4c24.9,52.3,59,97.6,100.2,138.3c32,31.6,68,56.6,107.9,76.9c35.9,18.2,74.1,28.3,113.4,34.7
	c38.2,6.2,38.2,5.8,76.4,0.3c99.3-14.2,179.8-62.5,245.6-136.6c20.9-23.6,38.4-50,55.1-76.8c36.6-59,62-122.9,80.3-189.6
	c7.7-28.1,13.7-56.8,20.6-85.1c1.3-5.7,3-11.2,5.3-16.6c2.7-6.7,8.8-11.3,16-12.1c6.9-0.9,14.1-1.5,20.9-0.6
	c16.2,2.2,32.3,5.2,48.2,8.3c4.5,0.9,8.8,3.2,12.8,5.5c10,5.7,15.6,14.6,14.2,26.1c-2.4,18.5-5.1,37-9.1,55.3
	c-14.2,65.1-32.5,129-58,190.9c-24.2,58.8-56.9,112.4-96.5,162c-6.6,8.2-13.2,16.4-20,24.3c-6.1,7.1-12,14.5-18.8,20.7
	c-38.9,35.3-80.2,67.9-127.4,91.9c-43,21.8-89,35.2-136.3,43.8c-4.6,0.8-9.3,1.2-13.9,1.3c-17.5,0.3-35,2-52.3,4.9
	C3812.6,6501.4,3803.2,6501.4,3800.5,6501.6z"/>
</svg>
