<?xml version="1.0" encoding="utf-8"?>
<!-- Generator: Adobe Illustrator 25.0.1, SVG Export Plug-In . SVG Version: 6.00 Build 0)  -->
<svg version="1.1" id="图层_1" xmlns="http://www.w3.org/2000/svg" xmlns:xlink="http://www.w3.org/1999/xlink" x="0px" y="0px"
	 viewBox="0 0 9899 9899" style="enable-background:new 0 0 9899 9899;" xml:space="preserve">
<style type="text/css">
	.st0{fill:#4694CC;}
</style>
<g>
	<path id="后片右" class="st0" d="M4629.7,0c3,4.8,7.7,6.8,13,8.3c42.3,12,84.5,24.2,126.7,36.1
		c133.2,37.6,266.5,75.2,399.7,112.7c32,9,64.1,17.9,96.1,27c5.1,1.4,10.3,3.2,14.6,6.1c2.9,2,5.9,6.1,6.2,9.4
		c0.6,6.5-0.2,13.3-1.4,19.8c-8.8,48.4-18.2,96.8-26.6,145.3c-5.2,30.1-9.1,60.5-13,90.9c-3.5,26.4-5.5,53-9.5,79.3
		c-4.7,31.8-5,63.7-6.3,95.7c-3.2,82.6-4.6,165.3,1.1,247.7c5.7,82.5,18.5,164,46.8,242.3c19.6,54.2,45.6,104.9,81.5,150.4
		c26.7,33.9,58.5,61.8,95,84.6c6.8,4.2,13.8,8,20.4,12.6c8.7,6,21.1,8.4,25.5,18.3c4.2,9.4,4.5,20.6,6.2,31.1
		c0.9,5.2,1.5,10.6,1.9,15.9c3.6,43.8,6.6,87.6,10.7,131.4c3.6,38.4,8.4,76.7,12.3,115.1c3.1,30.5,5.1,61,9.5,91.4
		c5.7,39.5,10.6,79.1,14.8,118.8c4.6,43.7,11,87.2,18.1,130.5c11.4,69.6,22.9,139.2,35.9,208.5c20.7,109.9,46.6,218.7,76.2,326.5
		c24.3,88.6,49.8,176.8,75.1,265.1c31.9,111.3,64.6,222.4,96.3,333.8c37.1,130.6,70,262.4,100.6,394.6
		c32.8,141.3,62.9,283.2,89.7,425.8c16.2,86.3,33,172.5,47.6,259.1c14.5,86.6,30.1,173,44.5,259.7c9.6,57.8,17.8,115.7,26.6,173.6
		c7,46,14.5,92,21.2,138.1c6.7,46.1,12.5,92.3,18.9,138.5c3.8,27.7,8.1,55.3,12,83c3.5,25,7,50.1,10.1,75.2
		c6.2,50.2,12.1,100.4,18.4,150.6c6.8,54.1,14.2,108.2,20.9,162.3c3.9,31.7,6.8,63.5,10.5,95.3c3.8,33,7.9,66.1,11.8,99.1
		c3.3,27.7,6.9,55.5,9.8,83.3c3.9,37.1,7,74.2,10.9,111.3c3.6,34.4,7.9,68.7,12,103.1c0.5,4,1.1,7.9,1.4,11.9
		c3.6,39.8,6.9,79.6,10.9,119.3c3.7,37.1,8.4,74,12.4,111.1c3.1,29.1,4.6,58.3,8.3,87.5c5.1,39.6,7.1,79.5,10.9,119.3
		c3.8,39.7,8.2,79.4,12.4,119.1c0.4,4,0.9,7.9,1.2,11.9c3.5,42.5,6.7,84.9,10.7,127.4c3.7,39.7,8.2,79.4,12.4,119.1
		c0.3,2.6,0.5,5.3,0.8,8c3.6,43.8,6.8,87.6,10.8,131.4c3.5,38.4,7.9,76.8,11.8,115.2c0.8,7.9,1.5,15.9,1.9,23.9
		c1.2,22.6-1,25.3-23.9,25.4c-85.3,0.6-170.5,1-255.8,1.3c-94.6,0.4-189.2-0.9-283.8,1.3c-182.5,4.2-365,2-547.5,3.2
		c-182.5,1.1-365.1,1.9-547.6,2.8c-36,0.2-72-0.4-107.9,1.2c-127.8,5.6-255.8,3.3-383.6,8.3c-82.5,3.2-165.2,3-247.6,7.6
		c-91.8,5.2-183.8,4.6-275.6,8.5c-51.9,2.2-103.8,3.4-155.7,3.4c-8,0-15.9-0.7-23.9-1.1c-4-0.2-10.1-6.8-10.3-10.9
		c-0.2-8-0.5-16-0.4-23.9c0.8-40,1.4-79.9,2.7-119.9c3.5-103.8,6-207.7,10.2-311.5c3-74.6,3.1-149.2,7.4-223.6
		c4.6-79.8,3.7-159.9,8.3-239.6c4.4-75.9,3.3-151.9,7.8-227.6c4.7-78.5,3.7-157.2,8.2-235.6c4.3-74.5,3.5-149.2,7.7-223.6
		c4.6-79.8,3.8-159.8,8.3-239.6c4.2-74.5,3.4-149.2,7.6-223.6c4.7-81.2,3.7-162.5,8.4-243.6c4.5-78.5,3.2-157.2,7.5-235.6
		c5.6-101.2,4-202.5,8.3-303.6c6.7-155.8,6-311.7,7.4-467.6c1.8-202.5,0.6-405.1-3.2-607.6c-1.2-65.2-4.2-130.5-6.8-195.7
		c-3-74.5-5.1-149.1-10.1-223.5c-2.8-42.5-3.3-85.3-8-127.6c-5.3-47.7-3.7-95.9-11.8-143.3c-0.4-2.6-0.4-5.3-0.5-8
		c-2.7-58.6-9.2-116.8-15.5-175c-4.2-38.4-6.8-76.9-10.9-115.3c-3.5-33.1-8-66-12.1-99c-3-23.8-6-47.5-9-71.3
		c-6.3-48.8-11.8-97.8-19-146.5c-8.6-57.9-18.4-115.6-28-173.4c-9-53.8-17.9-107.6-27.9-161.3c-11-58.9-22.9-117.5-35-176.2
		c-8.8-43-18.9-85.8-27.5-128.8c-10.8-53.7-27.2-105.7-47.6-156.4c-26.9-66.7-57.8-131.6-90.8-195.6
		c-34.2-66.3-68.4-132.6-101.1-199.6c-25.7-52.6-48.4-106.6-67.1-162.3c-18.4-54.6-30-110.4-34.8-167.7c-0.7-7.9-0.9-16-0.6-24
		c1.7-55.1,12.1-108.4,35.3-158.7c1.7-3.6,3.3-7.3,5.3-10.7c4-7.2,9.5-12.2,18-14.5c47.6-12.7,95.1-25.6,142.5-38.8
		c64.1-17.9,128.1-36.3,192.1-54.4c5.3-1.5,10-3.3,12.5-8.7c8,0,16,0,24,0c23.6,18.8,31.5,48.7,50.5,71.2
		c63.4,75.1,149.7,98.8,241.3,108c168.4,16.9,337.1,15.1,505.5-0.2c45-4.1,88.9-16.4,131.2-33.2c57.7-22.9,103.8-59,131.3-116.1
		c5.2-10.9,11.1-21.2,19.7-29.8C4613.7,0,4621.7,0,4629.7,0z"/>
	<path id="前片右" class="st0" d="M0,6988.9c8.3-3,13.2-8.7,14.1-17.5c3.2-31.8,6.2-63.6,9.6-95.4c4.5-42.4,9.3-84.7,13.9-127
		c2.9-26.5,4.5-53,8.1-79.5c5.2-38.2,7.3-76.9,11.2-115.3c3.7-35.7,8-71.4,12.1-107.1c0.7-6.6,1.5-13.2,2-19.9
		c4.1-46.4,9-92.7,14.8-139c4.4-35.7,6.8-71.6,10.5-107.3c4.1-39.7,8.8-79.4,13.2-119.1c2.9-26.5,4.5-53,8.2-79.5
		c5.1-36.9,7.2-74.2,11-111.3c3.8-37.1,8.3-74.1,12.4-111.1c0.6-5.3,1.3-10.6,1.7-15.9c3.1-47.9,9.4-95.4,15.1-143
		c4-33,6.4-66.3,9.9-99.4c4.4-42.4,9.2-84.7,13.8-127c2.9-26.5,4.5-53,8.2-79.5c5.2-36.9,7.1-74.2,11-111.3
		c4-38.4,8.8-76.7,12.9-115.1c3.7-34.4,6.6-68.9,10.2-103.3c4.2-39.7,8.7-79.4,13.1-119.1c0.4-4,1-7.9,1.4-11.9
		c3.7-39.8,7-79.6,11.1-119.3c3.6-34.4,8.1-68.7,12.1-103.1c3.1-26.4,4-53,7.8-79.5c5.2-35.5,7.2-71.5,10.9-107.3
		c3.8-37.1,8-74.1,12.1-111.1c0.6-5.3,1.6-10.5,2-15.8c3.3-49.2,9.5-98,15.4-146.9c4.5-37,6.9-74.2,10.7-111.3
		c4-38.4,8.7-76.7,12.9-115.1c2.9-26.5,5.9-52.9,8.5-79.4c3.7-37.1,6.7-74.3,10.6-111.3c3.9-37.1,8.4-74,12.6-111.1
		c0.7-6.6,1.1-13.3,1.8-19.9c4.8-45,9.6-90,14.5-135c2.9-26.5,3.9-53,7.8-79.5c5.2-35.5,7.2-71.5,10.9-107.3
		c3.8-37.1,8.1-74.1,12.1-111.1c0.9-7.9,1.7-15.9,2.6-23.8c4.8-45,9.8-90,14.5-135c2.9-27.8,4.4-55.7,8.3-83.5
		c5.2-36.9,7.1-74.2,11-111.3c3.8-37.1,8.3-74.1,12.4-111.1c2.9-26.5,6-52.9,8.6-79.4c3.6-35.8,6.7-71.6,10.4-107.3
		c4.1-39.7,8.8-79.4,13.2-119c2.9-26.5,4.6-53,8.2-79.5c5.1-36.9,7.1-74.2,11-111.3c4-38.4,8.7-76.7,12.9-115.1
		c2.9-26.5,5.9-52.9,8.5-79.4c3.8-38.4,6.9-76.9,10.9-115.3c3.7-35.7,8.1-71.4,12.3-107.1c3.1-26.4,4.5-53,8.2-79.5
		c5.3-38.2,7.4-76.9,11.3-115.3c3.7-35.7,8-71.4,11.9-107.1c1.3-11.9,2.2-23.9,3.3-35.8c1.1-11.9,1.3-24.1,3.6-35.7
		c7.3-36.7-2.9-36.1,40.7-37c60.8-1.1,110.9-25.1,150.7-70.8c14-16.1,25.6-34.1,35.4-53.1c20.4-39.4,32.8-81.5,41.2-124.8
		c9.6-49.7,15.1-100,17-150.7c0.8-22.6,2.7-45.2,3.9-67.8c0.4-6.6,0.4-13.3,0.1-20c-0.9-26.6-2.3-53.2-3-79.8
		c-1-38.6-1.1-77.3-7.4-115.6c-1.1-6.5-1.2-13.3-1.4-19.9c-1.3-42.7-8.6-84.7-14.2-126.9c-5.5-40.9-11.3-81.8-18.7-122.3
		c-6.9-38-14.2-75.9-21.2-113.8c-1.7-9.2-2.9-18.4-3.9-27.7c-0.7-6.8,3.3-12.6,10.5-15c62.2-20.8,120-50.9,177.5-82
		c43.3-23.5,87.4-45.7,131.6-67.4c38.4-18.8,78.6-32.9,120.8-40.6c42.9-7.8,84.9-5.6,125.2,12.4c6.1,2.7,11.9,5.9,17.6,9.3
		c8.5,5.1,13.7,12.6,14.2,22.7c1.8,38.8,10.8,76.5,19.8,114c19.7,81.8,46.6,161,85.6,236c35.4,68,79.2,129.4,135.1,182
		c79.7,75,172.4,123.6,281.1,141.5c46.5,7.6,92.9,6.9,139.5,6.1c48.3-0.8,95.3-10.2,141-25.4c67.8-22.6,128.4-58.3,182.3-105.1
		c63.1-54.8,113.3-119.9,152.3-193.7c41.9-79.5,71.4-163.4,90.1-251.1c7.2-33.9,14.6-67.7,17.5-102.3c0.2-2.6,1.2-5.2,1.9-7.7
		c1.1-4.5,7.9-9.2,12.2-8.1c29.6,7.9,59.2,15.7,88.6,24c55.1,15.5,110.2,31.2,165.2,46.9c6.4,1.8,12.6,4.2,18.9,6.5
		c6.6,2.4,9.5,8.6,7.1,16.2c-3.2,10.1-6.7,20.2-10.3,30.2c-39.8,111.6-80.4,223-119.4,334.9c-45.6,130.8-86.2,263.2-122,397
		c-23.4,87.5-44.6,175.5-61.1,264.5c-9.9,53.6-21,107.2-28.8,161.1c-7.6,52.7-13.9,105.6-20,158.5c-5.3,46.4-4.9,93.1-12.3,139.3
		c-0.4,2.6-0.4,5.3-0.5,8c-3.6,117.2-11.9,234.3-7,351.6c3.1,74.6,3.3,149.2,7.8,223.7c2.8,46.5,3.3,93.3,8.1,139.6
		c5.1,49.1,3.5,98.6,11.4,147.4c0.6,3.9,0.6,8,0.8,12c3.6,53.1,6.8,106.3,11,159.4c3.4,43.8,8,87.5,12.1,131.2
		c0.2,2.7,0.5,5.3,0.7,8c3.6,49.1,6.8,98.3,10.9,147.4c3.7,43.8,8.3,87.5,12.5,131.2c0.1,1.3,0.3,2.6,0.4,4
		c3.5,45.1,5.7,90.4,10.8,135.4c5.3,46.3,5.5,93.1,12.6,139.2c0.2,1.3,0.3,2.6,0.4,4c3,37.2,6,74.3,9,111.5
		c4.5,55.7,7.9,111.6,14.4,167.1c0.3,2.6,0.5,5.3,0.7,8c3.6,51.8,7,103.6,11,155.4c3.7,47.8,8.2,95.5,12.4,143.2
		c0.1,1.3,0.2,2.7,0.3,4c3.3,50.5,6.2,101,10.1,151.5c4.9,62.4,7,125,13.5,187.2c0.3,2.6,0.4,5.3,0.6,8
		c3.7,66.5,5.5,133.2,11.5,199.4c5.6,61.1,4.2,122.5,11.9,183.4c0.3,2.6,0.4,5.3,0.5,8c3.2,63.9,6.5,127.7,9.6,191.6
		c1.6,33.3,0.9,66.6,6.1,99.7c0.4,2.6,0.3,5.3,0.4,8c3.7,89.2,6.4,178.4,11.6,267.5c3.7,63.9,4.3,127.9,8.5,191.6
		c4.1,61.2,3.5,122.5,7.4,183.7c5.1,79.8,4.2,159.9,8.8,239.6c4.1,69.2,4.3,138.5,6.7,207.7c0.8,23.9,2.7,47.9,3.6,71.8
		c1,26.6,1.2,53.3,2.1,79.9c2.3,67.9,1.8,135.8,5.9,203.7c3.5,58.5,2.6,117.2,3.7,175.9c0.9,43.9,2.5,87.9,4,131.8
		c3.3,91.9,3.4,183.9,4.8,275.8c0,2.7-0.3,5.3-0.5,8c-0.4,5.6-4,10.7-9,11.6c-10.4,1.9-20.9,4.2-31.5,4.9
		c-65.1,4-130.5,5.6-195.4,11.9c-57.1,5.5-114.5,3.9-171.4,11.7c-3.9,0.5-8,0.5-12,0.7c-53.2,2.5-106.5,3.7-159.7,7.3
		c-47.8,3.2-95.9,3.2-143.9,3.1c-114.6-0.3-229.2,0.2-343.8-2.9c-66.5-1.8-133.2-3.7-199.6-8.1c-43.9-2.9-88-2.8-131.6-7.6
		c-53-5.8-106.6-3.4-159.3-11.7c-1.3-0.2-2.7-0.2-4-0.3c-50.5-3.3-101.1-5.8-151.5-10.2c-54.4-4.7-109-6.5-163.2-13.2
		c-2.6-0.3-5.3-0.5-8-0.7c-51.8-3.6-103.7-6.8-155.4-10.7c-49.1-3.7-98.2-8.2-147.2-12.4c-2.7-0.2-5.3-0.6-8-0.7
		c-50.5-3.3-101-6.1-151.5-10.1c-57.1-4.5-114.3-6.7-171.2-13.4c-1.3-0.2-2.7-0.3-4-0.4c-49.2-3.2-98.3-6.4-147.5-9.7
		c-49.2-3.3-98.3-6.6-147.5-9.8c-10.6-0.7-21.3-2.4-31.6,1.6C0,7015.5,0,7002.2,0,6988.9z"/>
	<path id="前片左" class="st0" d="M6900.5,0c3.9,6.3,10.6,7.4,17,9.2c55.1,15.5,110.1,31.2,165.2,46.7
		c39.7,11.2,79.5,22.3,119.1,33.6c5,1.4,9.9,3.9,14.3,6.7c2,1.2,3.9,4.3,3.9,6.5c0.1,6.6-0.1,13.4-1.4,19.8
		c-9,48.4-19.1,96.6-27.3,145.1c-7.4,43.3-12.8,86.9-19.2,130.3c-11.5,77.8-16,156.3-20.4,234.7c-2.8,49.1-4.7,98.5,1.7,147.7
		c2.5,19.8,1.8,39.9,3.1,59.9c3.4,51.9,10.8,103.3,24.4,153.5c10.8,40,25.7,78.5,49.5,112.8c17.7,25.4,39,47,65.3,63.8
		c26.5,17,55.3,25.8,86.3,28.2c6.6,0.5,13.3,0.7,20,0.8c31.1,0.6,32.2-0.2,36,32.7c8.2,71.4,19.2,142.5,32.5,213.1
		c18.5,98.1,41,195.4,65.7,292.1c35.3,138.1,75.2,274.8,118.1,410.6c50.2,158.7,101.7,316.9,152.9,475.2
		c51.1,158.4,101,317.1,145.9,477.4c33.4,119.2,63,239.4,87.8,360.7c10.9,53.4,18.4,107.6,28.2,161.2c9.4,51.1,13,103,20.8,154.3
		c0.2,1.3,0.3,2.6,0.5,4c10.2,106.3,13.7,212.8,7.7,319.3c-7.7,136.1-31.2,269.5-76.2,398.7c-46.5,133.4-114.2,254.9-201.7,365.6
		c-59.1,74.7-135.8,122.8-227,148.2c-56.6,15.8-114.4,24.7-173.3,26.2c-66.6,1.7-133.3,1.4-199.8-2.6c-42.5-2.6-84.8-7.7-127.2-11.7
		c-2.7-0.3-5.3-0.7-7.9-0.9c-42.5-3.6-85.1-5.6-127.3-11c-59.6-7.6-119.6-6.7-179.4-11.5c-25.1-2-50.6-0.5-75.8,0.5
		c-31.9,1.3-63.8,3.8-95.7,5.7c-1.3,0.1-2.7,0.1-4,0.2c-7.2,0.1-13.2-4.7-13.9-11.3c-2.8-29.1-5.5-58.3-8.3-87.4
		c-4.9-51.7-7.3-103.6-13.7-155.1c-0.3-2.6-0.5-5.3-0.7-8c-3.6-49.1-6.8-98.3-10.8-147.4c-3.8-46.4-8.4-92.8-12.6-139.2
		c-0.1-1.3-0.3-2.6-0.4-4c-3.5-50.5-6.8-101-10.7-151.4c-3.8-49.1-8.2-98.1-12.3-147.2c-0.2-2.7-0.6-5.3-0.8-8
		c-3.6-55.8-6.9-111.6-10.9-167.4c-3.5-47.8-6-95.7-9.7-143.5c-2.7-34.5-3.4-69.2-6.7-103.6c-5.8-59.7-5.2-119.7-11.9-179.3
		c-0.9-7.9-0.9-16-1.3-23.9c-2-42.6-1.9-85.2-6.9-127.7c-2.2-18.5-1.4-37.3-2.1-55.9c-3.1-89.2-7.1-178.4-11.1-267.5
		c-4.2-91.9-3.4-183.8-7.6-275.6c-6.9-149.2-4.5-298.4-5-447.6c-0.2-71.9-0.9-144,1.8-215.8c3.5-91.9,3.4-183.8,8.1-275.6
		c2.8-55.9,3.7-111.9,7.7-167.6c3.2-45.2,4.2-90.5,8.1-135.6c3.3-38.5,3.4-77.3,8-115.5c5.2-43.7,5.4-87.7,11.4-131.3
		c4.5-32.9,5.7-66.3,9.3-99.4c6.7-62.2,13.4-124.4,22.8-186.2c6-39.5,11.5-79,17.5-118.5c15.3-100,36.1-199,60.6-297.2
		c19.3-77.5,41-154.4,67.5-229.8c27-76.8,59.8-151.1,99.6-222.1c25.5-45.4,55.4-87.9,87.1-129.1c8-10.5,18.1-19.6,21.9-33
		C6884.5,0,6892.5,0,6900.5,0z"/>
	<path id="后片左" class="st0" d="M9899,5005.8c-45-4.7-90.2-6.8-135.5-7.3c-34.6-0.4-69.3-0.3-103.9-2.6
		c-82.4-5.5-165.1-4-247.5-8.7c-73.2-4.2-146.5-3.2-219.6-7.5c-81.1-4.8-162.5-3.8-243.5-8.5c-73.2-4.3-146.4-4.4-219.6-7.2
		c-39.9-1.6-79.8-3.7-119.7-5.6c-9.6-0.5-15.4-5.8-15-14.5c1.2-26.6,2.8-53.2,4.5-79.7c0.4-6.6,2.1-13.2,2.5-19.8
		c3.7-53.1,6.9-106.3,10.9-159.4c3.8-50.4,8.3-100.8,12.5-151.2c0.2-2.7,0.5-5.3,0.7-8c3.3-47.8,5.8-95.7,10.1-143.4
		c5.1-57,6.6-114.3,13.6-171.1c0.2-1.3,0.3-2.6,0.4-4c3.2-46.5,5.9-93,9.8-139.4c4.8-57,6.9-114.3,13.7-171.1c0.2-1.3,0.2-2.7,0.3-4
		c3.6-53.1,5.8-106.4,11.1-159.3c5-50.3,5.1-101,12.2-151.2c0.4-2.6,0.6-5.3,0.7-8c3.5-51.8,6.7-103.6,10.6-155.4
		c3.8-50.4,8.3-100.8,12.5-151.2c0.2-2.7,0.5-5.3,0.7-8c3.6-53.1,6.8-106.3,10.8-159.4c3.8-50.4,8.3-100.8,12.5-151.2
		c0.2-2.7,0.6-5.3,0.8-8c3.3-47.8,6.1-95.6,10-143.4c4.7-57,7-114.2,13.7-171.1c0.2-1.3,0.3-2.7,0.4-4c3.4-49.1,6-98.3,10.3-147.4
		c4.9-55.7,6.3-111.6,13.3-167.1c0.2-1.3,0.3-2.7,0.4-4c3.4-50.5,6.6-101,10.4-151.4c3.9-51.7,8.4-103.4,12.7-155.2
		c0.2-2.7,0.6-5.3,0.8-8c3.3-47.8,6.2-95.6,10-143.4c4.5-57,7.2-114.2,13.6-171.1c0.2-1.3,0.3-2.7,0.4-4c3.3-47.8,6-95.7,10.1-143.4
		c4.9-57,7-114.2,13.4-171.1c1.6-14.5,3-29.3,2.3-43.9c-0.8-17.3,7.1-27.4,21.6-34.5c7.1-3.5,13.8-8.1,20.7-12.1
		c57.6-33.8,102.1-80.6,137-137.1c32.5-52.7,53.9-109.9,68.5-169.6c13.3-54.3,21.1-109.5,26.2-165.4c6.1-66.5,5.7-133,5.2-199.5
		c-0.2-25.3-0.2-50.6-4.5-75.7c-1.1-6.5-1.1-13.3-1.2-19.9c-0.3-52.1-8.6-103.3-15-154.8c-9.8-78-24.2-155.1-40.2-231.9
		c-0.3-1.3-0.3-2.6-0.5-3.9c-0.7-4.9,2.6-11.4,7-13.1c7.4-2.8,14.9-5.7,22.5-7.9c83.2-23.6,166.5-47,249.7-70.6
		c11.5-3.3,22.9-6.8,34.2-10.8c2-0.7,3.1-3.9,4.7-5.9c8,0,16,0,24,0c22.2,12.6,25.5,36.3,33,57.3
		c101.8,284.7,161.1,579.6,209.5,876.9c45.8,281.3,79.6,564.1,107,847.7c20,206.6,37.3,413.3,52.2,620.3
		c10.7,148.5,18.2,297.3,27.3,446c12.2,199.1,16.6,398.6,29.3,597.7c5.1,79.6,3.4,159.6,4.2,239.4c2.2,219.6,8,439.2,5,658.9
		c0,98.3-0.1,196.6,0.2,294.8c0,13-3.6,26.6,3.9,38.9C9899,4787.2,9899,4896.5,9899,5005.8z"/>
	<path id="后裙片" class="st0" d="M7698.8,7244.9c-226.5-0.5-453-1-679.5-1.5c-166.5-0.4-333.1-0.8-499.6-1.3
		c-14.6,0-29.2-1.7-43.9-2.2c-34.5-1.1-34.4-2-30.6-38.1c2.3-22.5,5.5-44.9,8.6-67.3c6.8-48.8,13.8-97.5,20.6-146.2
		c3.1-22.4,6-44.8,8.9-67.3c6.2-48.8,12.1-97.7,18.6-146.5c6.5-48.8,13.9-97.5,20.6-146.2c4-29,7-58.1,10.8-87.2
		c3.6-27.7,7.7-55.3,11.6-83c3.3-23.7,6.8-47.4,9.9-71.2c6.3-48.8,12.2-97.7,18.8-146.5c6.5-48.8,13.7-97.5,20.5-146.3
		c3.1-22.4,6-44.8,8.9-67.3c6.3-48.8,12.2-97.7,18.7-146.5c6.5-48.8,13.9-97.5,20.5-146.2c4-29,7.2-58.1,10.9-87.2
		c2.8-22.4,5.6-44.9,8.7-67.3c6.8-48.8,14.2-97.4,20.7-146.2c6.7-50.1,12.6-100.3,19-150.5c3-23.8,6.2-47.5,9.6-71.2
		c2.2-14.7,8.7-19.6,24.8-19.5c5.3,0,10.7,0.2,16,0.4c30.6,1.2,61.2,2.9,91.8,3.4c81.3,1.3,162.5,1.8,243.8,3.3
		c51.9,0.9,103.8,3.7,155.7,4.6c90.6,1.6,181.2,0.9,271.8,3.9c102.5,3.4,205.1,4.9,307.6,6.4c40,0.6,80-0.1,119.9,1.7
		c142.5,6.3,285.1,3.5,427.5,8.6c131.8,4.7,263.8,3.3,395.6,7.7c67.9,2.2,135.8,3.7,203.7,5c5.3,0.1,10.8,0.3,15.7,2.1
		c3.1,1.1,7.1,5,7.4,8c1.2,11.9,1.5,23.9,1.5,35.9c0.4,197.2,0.8,394.4,0.9,591.6c0,91.9-0.1,183.9-1.3,275.8
		c-1.5,114.6-4.3,229.1-6.5,343.6c-0.4,21.3-0.5,42.6-1,63.9c-0.6,30.6-0.8,61.2-3.7,91.8c-2.1,21.2-1.3,42.6-1.8,63.9
		c-1,46.6-0.4,93.3-3.2,139.9c-4.6,77.2-4.1,154.5-8.5,231.6c-2.8,49.2-3.6,98.5-6.4,147.7c-0.6,10.3-7.4,17.8-16.8,18.9
		c-4,0.5-8,1-11.9,0.9c-12-0.2-24-0.6-35.9-1c-12-0.4-23.9-1.4-35.9-1.6c-78.6-1.1-157.1-2.5-235.7-2.8
		c-186.5-0.8-373.1-1.2-559.6-1.5c-122.6-0.2-245.2,0-367.7,0C7698.8,7245.5,7698.8,7245.2,7698.8,7244.9z"/>
	<path id="前裙片" class="st0" d="M6451.5,8367.8c1-106.6,0.4-213.2,3.3-319.8c5.3-195.8,5.6-391.7,8.4-587.5
		c0.2-16,2.1-31.9,2.7-47.9c0.9-24.2,3.2-26,27.9-30.3c40.6-7,81.5-13.1,122.4-18.5c56.7-7.5,113.6-14.1,170.3-21.1
		c1.3-0.2,2.7-0.3,4-0.4c49.2-3.4,98.3-6.9,147.5-10.1c213-13.6,426.1-8.9,639.3-6c81.1,5.8,162.5,4.4,243.6,9
		c59.9,3.4,119.9,3.4,179.7,7.1c89.1,5.6,178.5,4.6,267.6,8.9c106.6,5.3,213.1,3.7,319.7,4.2c47.4,0.2,45.1-5.7,49.8,43.5
		c3.9,41,9.8,81.9,15.1,122.8c3.9,30.3,8.4,60.6,12.3,91c3.4,26.4,6.5,52.8,9.5,79.3c3.5,30.4,6.5,60.9,10.2,91.3
		c3.7,30.4,8.1,60.7,12.1,91c3.3,25.1,6.5,50.2,9.4,75.3c3.7,31.7,6.7,63.5,10.5,95.3c3.7,30.4,8.1,60.7,12,91
		c3.4,26.4,6.7,52.8,9.8,79.2c3.5,30.4,6.5,60.9,10.2,91.3c3.7,30.4,8.3,60.6,12.2,91c3.1,23.8,5.9,47.5,8.7,71.3
		c3.5,30.4,6.7,60.9,10.4,91.2c4.1,33,8.6,66,12.9,98.9c2.9,22.4,5.7,44.9,8.3,67.4c3.7,31.7,7.1,63.5,10.9,95.2
		c3.8,31.7,7.9,63.4,11.9,95.1c3.4,26.4,7,52.8,10.1,79.2c3.6,30.4,6.6,60.9,10.3,91.3c3.7,30.4,8.1,60.7,12,91
		c3.1,23.8,6,47.5,8.6,71.3c4.5,41,8.8,82,13.1,123.1c0.4,3.3-3.7,7.7-7.2,8.2c-2.6,0.4-5.2,1.1-7.9,1.2
		c-54.6,1.4-109.2,3.3-163.8,3.8c-198.5,1.7-397.1,1.1-595.6,4.9c-137.2,2.6-274.4,4-411.6,4.5c-158.6,0.5-317.1,0.7-475.7-2.1
		c-81.2-1.4-162.5-3.4-243.6-7.8c-45.2-2.5-90.6-3-135.6-7.9c-45-4.9-90.4-5.1-135.3-11.4c-39.5-5.5-79.6-6.8-119.3-10.8
		c-43.7-4.5-87.3-9.9-130.9-15.1c-7.3-0.9-12.1-6.2-12.2-13.3c-0.1-21.3-0.3-42.6,0.2-63.9c0.7-33.3,2.5-66.5,2.8-99.8
		c1.6-186.5,2.4-373.1,4.4-559.7c0.8-78.6,3.7-157.1,5.6-235.7C6452.2,8367.8,6451.9,8367.8,6451.5,8367.8z"/>
	<path id="左袖" class="st0" d="M3807.7,7082.5c25.3,0.6,50.6,1.1,75.9,1.8c4.9,0.1,10,5.4,10.1,10.4c1,36,0.3,71.9-3.4,107.7
		c-1,9.3-2.4,18.5-3,27.8c-5.5,84.1-21.5,166.3-46.4,246.7c-16.9,54.7-35,109-53.3,163.2c-21.4,63.2-38.8,127.4-50.2,193
		c-5.2,30.1-9,60.5-12.6,90.9c-11.2,95.7-9.5,191.6-6,287.4c2.5,70.6,12.9,140.4,27.3,209.6c13.6,65.3,34.8,128.4,55.7,191.6
		c13,39.2,25.7,78.4,38.1,117.8c18.9,59.8,32.3,120.7,40.3,183c8,62.2,13.5,124.4,14.3,187c0.1,5.3,0.2,10.9-1.3,15.8
		c-1,3.2-4.6,6.3-7.8,7.8c-3.4,1.6-7.8,1.6-11.7,1.6c-45.3,0.1-90.6,0-135.9-0.1c-2.6,0-5.3-0.6-7.9-0.8c-5.1-0.5-10-5-10.7-10
		c-2.1-15.8-4.5-31.6-6.4-47.4c-7.3-62.3-37.2-113.1-79.6-157.6c-22.2-23.2-46.8-43.7-73.3-61.6c-26.5-17.9-53.4-35.2-80.9-51.4
		c-28.7-16.9-58.4-32-87.4-48.4c-37.1-20.9-74.7-41.2-110.8-63.8c-88.3-55.2-161.2-126.3-215.9-215.4c-40.1-65.4-67-136-81.9-211.2
		c-11.7-59-18-118.5-15.3-178.7c4.8-106.3,26.8-208.3,76.8-303.3c44.2-83.9,104.9-153.8,179.4-211.8c34.7-27,72-50.5,110.5-71.8
		c49-27.1,98.2-53.7,146.9-81.2c44.1-24.9,86.3-52.9,124.8-86.1c27.5-23.6,51.3-50.3,70.5-81.1c17.9-28.6,30.3-59.2,34.8-92.8
		c1.4-10.5,4.5-20.9,5.2-31.5c2.5-39.6,2.4-36.4,39.2-36.7c17.3-0.2,34.6,0,52,0C3807.7,7082.8,3807.7,7082.7,3807.7,7082.5z"/>
	<path id="右袖" class="st0" d="M8979.8,9301.3c-21.3,0-42.6,0.1-64,0c-4,0-7.9-0.6-11.9-1c-5.1-0.5-10.4-5.4-10.3-10.3
		c0.3-19.9,0.6-39.9,1.4-59.8c0.4-10.6,2.4-21.2,2.8-31.8c4.4-112.5,25.6-222,61.1-328.7c15.6-46.7,30.9-93.5,46.4-140.3
		c17.2-51.9,32-104.4,41.8-158.2c5.2-28.8,8.9-57.9,13.6-86.7c8.1-50.2,7.7-100.9,11.7-151.3c3.3-42.4,3.4-85.2-1.7-127.7
		c-1.1-9.2-1.3-18.6-1.7-27.9c-4.5-116.5-25.2-230.1-61.4-340.8c-14.9-45.6-29.9-91.1-45.3-136.5c-22.7-67-40.3-135.2-51.6-205
		c-3.2-19.7-5.9-39.5-7.4-59.4c-4.3-54.4-10.7-108.7-10.1-163.4c0.1-7.2,5.4-12.7,12.2-13.3c4-0.3,8-0.7,12-0.7
		c42.6,0,85.3,0,127.9,0.1c4,0,8,0.5,11.9,0.9c5.4,0.5,9.8,4.4,10.7,9.9c2.3,14.5,4.9,28.9,6.5,43.4c6.3,57.8,31.2,107,69.6,149.6
		c25,27.8,52.9,52.6,83.8,73.9c36.3,24.9,73.7,47.8,112.3,69c45.5,25,91.2,49.7,136.2,75.7c57.9,33.4,111.7,72.5,158.4,120.8
		c87.6,90.4,143.8,197.1,169.4,320.4c15.3,73.7,19.9,148,13.7,222.6c-13.8,165.3-75.6,309.2-195.7,425.9
		c-44.2,43-94,78.7-147.3,109.2c-49.7,28.4-100.1,55.6-150.3,83.3c-40.8,22.6-80.6,46.9-117.4,75.7c-32.6,25.6-62.6,53.9-86.5,88.1
		c-25.6,36.8-40.3,77.2-46.8,121.7c-8.9,60.5,5.1,51.7-58.2,52.5C9003.8,9301.5,8991.8,9301.4,8979.8,9301.3
		C8979.8,9301.4,8979.8,9301.3,8979.8,9301.3z"/>
	<path id="领圈" class="st0" d="M4589.7,7855.5c-46.9-2.1-88.1-2.2-129-10c-40.8-7.8-80.1-19.4-118.1-36
		c-97.3-42.7-176.7-108-241.8-191.4c-60.5-77.5-103-164.5-134.7-257c-21.1-61.8-37.6-124.8-48.7-189.2c-1.8-10.5-4.5-20.8-6.6-31.2
		c-2.1-10.3,2.4-18.2,9.8-24.6c9.2-8,20.2-12.6,32.1-15.4c27.4-6.5,55.3-7.8,83.2-8.8c4.8-0.2,10,3.8,11.4,9.3
		c4.7,18,9.6,36,13.4,54.2c16.3,78.6,40.6,154.5,75.5,226.7c36.1,74.8,81,143.9,141.6,201.6c69.2,65.8,149.1,111,244.4,126.5
		c73,18.3,142.9,3.2,211.2-21.7c62.1-22.6,115.9-59,163.3-105.2c50.2-48.8,90.2-104.8,123-166.3c42.3-79.2,71.2-163.3,90.2-250.9
		c5.1-23.4,10.3-46.8,15.6-70.1c1.3-5.7,6.1-10,11-9.5c26.5,2.5,53,4.4,79.3,8.2c10.2,1.5,20.3,6.3,29.7,11.1
		c13.8,7.1,18.8,17.4,16.1,33.1c-5.3,30.1-10.6,60.3-17.1,90.2c-20.7,94-50.7,184.8-95.2,270.4c-35.8,69-79.9,132.2-135.7,186.6
		c-60.8,59.3-130.2,105.3-210,135.2c-43.9,16.4-89.4,26.2-135.9,30.5C4640,7854.2,4611.9,7854.4,4589.7,7855.5z"/>
</g>
</svg>
